<?xml version="1.0" standalone="no"?>
<!DOCTYPE svg PUBLIC "-//W3C//DTD SVG 20010904//EN"
 "http://www.w3.org/TR/2001/REC-SVG-20010904/DTD/svg10.dtd">
<svg version="1.0" xmlns="http://www.w3.org/2000/svg"
 width="1366.000000pt" height="768.000000pt" viewBox="0 0 1366.000000 768.000000"
 preserveAspectRatio="xMidYMid meet">

<g transform="translate(0.000000,768.000000) scale(0.100000,-0.100000)"
fill="#000000" stroke="none">
<path d="M0 7325 l0 -355 6595 0 6595 0 0 -3475 0 -3475 -6595 0 c-4390 0
-6595 -3 -6595 -10 0 -7 2283 -10 6830 -10 l6830 0 0 3840 0 3840 -6830 0
-6830 0 0 -355z m3088 203 l37 -1 -37 -4 c-36 -4 -38 -6 -40 -41 l-1 -37 -4
38 c-4 35 -6 37 -41 39 l-37 1 38 4 c35 4 37 6 39 41 l1 37 4 -37 c4 -36 6
-38 41 -40z m-2783 -8 l0 -65 -65 0 -65 0 -3 54 c-5 80 -2 82 70 79 l63 -3 0
-65z m605 42 c0 -5 -10 -8 -22 -8 -19 1 -23 -4 -23 -29 0 -25 4 -30 23 -29 12
0 22 -3 22 -8 0 -16 -52 -4 -63 14 -17 26 7 68 38 68 14 0 25 -4 25 -8z m350
-19 l14 -28 4 28 c6 44 22 31 22 -18 0 -52 -19 -61 -40 -17 l-14 27 -4 -27
c-6 -45 -22 -32 -22 17 0 52 19 61 40 18z m303 -15 c14 -38 16 -40 16 -15 1
25 4 28 29 25 35 -4 45 -46 13 -55 -12 -3 -21 -12 -21 -19 0 -8 -4 -14 -10
-14 -5 0 -10 6 -10 13 0 20 -52 46 -57 30 -5 -15 -23 -18 -23 -4 0 18 31 81
39 81 5 0 16 -19 24 -42z m11454 2 c1 -34 1 -34 -5 -5 -6 23 -14 31 -37 37
-29 6 -29 6 5 5 33 -2 35 -4 37 -37z m441 21 l27 24 -24 -27 -24 -28 24 -27
24 -28 -27 24 -28 24 -27 -24 -28 -24 24 28 24 27 -24 28 -24 27 28 -24 27
-24 28 24z m-12347 2 c5 -48 2 -73 -7 -73 -12 0 -23 48 -16 68 4 13 22 16 23
5z m345 -8 c9 -8 11 -15 5 -15 -15 0 -14 -37 2 -44 6 -3 3 -5 -8 -3 -11 1 -22
12 -25 27 -4 15 -9 20 -13 13 -4 -6 -4 -18 -1 -27 3 -9 1 -16 -5 -16 -6 0 -11
6 -12 13 0 10 -2 10 -6 0 -9 -23 -18 -14 -18 17 0 28 14 44 16 18 0 -10 2 -10
6 0 2 6 11 12 19 12 8 0 14 5 14 10 0 14 9 12 26 -5z m1264 0 c7 8 17 12 22 9
5 -3 2 -14 -7 -24 -14 -15 -14 -18 0 -30 8 -7 12 -17 9 -22 -3 -5 -14 -2 -24
7 -15 14 -18 14 -30 0 -7 -8 -17 -12 -22 -9 -5 3 -2 14 7 24 14 15 14 18 0 30
-8 7 -12 17 -9 22 3 5 14 2 24 -7 15 -14 18 -14 30 0z m-2044 -12 c22 -29 16
-43 -16 -43 -34 0 -34 0 -18 35 13 30 17 30 34 8z m12319 -23 c0 -33 -2 -35
-35 -35 -29 0 -36 4 -38 23 -6 40 5 54 40 50 30 -3 33 -6 33 -38z m-11977 13
c2 -8 -5 -13 -17 -13 -25 0 -28 -17 -3 -24 10 -3 6 -4 -8 -3 -18 1 -26 9 -28
25 -5 30 -22 28 -22 -3 0 -14 -4 -25 -10 -25 -5 0 -10 13 -10 30 0 29 1 29 47
27 26 -1 48 -7 51 -14z m60 -16 c3 -26 1 -28 -24 -25 -35 4 -44 27 -13 35 22
6 22 7 3 15 -16 6 -15 7 6 5 19 -1 26 -8 28 -30z m99 16 c2 -6 -6 -13 -19 -15
l-23 -5 25 -11 25 -11 -28 0 c-29 -1 -43 18 -33 45 7 18 47 16 53 -3z m191 0
c2 -8 -5 -13 -17 -13 -25 0 -28 -17 -3 -23 12 -4 11 -5 -6 -6 -25 -1 -38 20
-28 45 7 18 47 15 54 -3z m340 -11 c3 -17 -2 -25 -17 -29 -12 -3 -21 -12 -21
-19 0 -8 -4 -14 -10 -14 -5 0 -10 21 -10 46 0 44 1 45 28 42 19 -2 28 -9 30
-26z m10830 1 c-16 -2 -40 -2 -55 0 -16 2 -3 4 27 4 30 0 43 -2 28 -4z m356
-237 c-3 -9 -12 -12 -22 -9 -15 6 -9 11 25 22 1 1 0 -5 -3 -13z m81 -26 c8
-13 -5 -13 -25 0 -13 8 -13 10 2 10 9 0 20 -4 23 -10z m-12715 -35 c-13 -14
-28 -25 -34 -25 -5 0 3 13 19 30 16 16 31 28 33 25 3 -3 -5 -16 -18 -30z m500
25 c9 -6 17 -5 22 3 5 7 8 1 8 -15 0 -24 -4 -28 -27 -27 -25 0 -25 1 -8 8 19
8 18 9 -7 21 -55 26 -114 -31 -90 -85 27 -59 100 -55 127 8 12 27 14 29 15 9
0 -33 -43 -72 -80 -72 -41 0 -80 39 -80 80 0 58 72 100 120 70z m527 -7 c4
-10 13 -23 21 -28 9 -7 12 -26 10 -55 l-3 -45 -55 0 -55 0 -3 45 c-2 29 1 48
10 55 8 5 17 18 21 28 3 9 16 17 27 17 11 0 24 -8 27 -17z m10273 7 c0 -5 9
-10 20 -10 15 0 20 -7 20 -25 0 -16 -6 -25 -15 -25 -8 0 -15 -4 -15 -10 0 -5
7 -10 15 -10 9 0 15 -9 15 -25 0 -16 -6 -25 -15 -25 -8 0 -25 -6 -36 -12 -17
-10 -23 -10 -26 0 -3 6 -13 12 -24 12 -12 0 -19 7 -19 20 0 11 -4 20 -10 20
-5 0 -10 9 -10 20 0 11 5 20 10 20 6 0 10 9 10 20 0 13 7 20 19 20 11 0 23 5
26 10 3 6 13 10 21 10 8 0 14 -4 14 -10z m478 -14 c7 -15 21 -26 39 -29 27 -4
27 -4 -4 -6 -21 0 -36 5 -43 17 -10 16 -10 16 -20 0 -6 -10 -20 -18 -30 -18
-23 0 -26 -13 -6 -29 8 -7 12 -21 9 -31 -6 -22 7 -26 25 -8 7 7 12 8 12 4 0
-10 -31 -35 -42 -36 -5 0 -8 12 -8 27 0 14 -7 34 -16 44 -19 21 -11 39 17 39
11 0 24 11 31 25 14 31 22 31 36 1z m450 -1 c4 -19 3 -19 -10 -3 -11 15 -19
16 -50 7 -43 -11 -44 -15 -24 -64 8 -19 11 -35 6 -35 -13 0 -19 12 -26 58 -6
40 -5 41 27 51 48 14 73 9 77 -14z m-1350 -19 c-4 -30 -68 -37 -68 -7 0 24 25
40 52 33 13 -3 18 -12 16 -26z m-1365 -46 c-15 -27 -30 -50 -33 -49 -3 0 -16
14 -29 30 l-24 31 20 20 c22 21 86 40 91 26 2 -4 -9 -30 -25 -58z m895 41 c2
-15 9 -21 18 -17 19 7 18 -3 -6 -41 -22 -37 -44 -42 -60 -14 -15 29 -12 62 7
83 21 23 37 19 41 -11z m-9133 -16 c16 0 20 -7 21 -35 l2 -35 -5 33 c-6 42
-35 40 -44 -3 -5 -22 -7 -16 -7 25 0 31 3 46 6 35 4 -11 16 -20 27 -20z m637
28 c-12 -2 -22 -10 -21 -16 4 -32 -2 -77 -10 -77 -12 0 -19 66 -8 85 4 8 20
14 35 14 24 -2 24 -2 4 -6z m238 -8 c0 -8 9 -15 20 -15 17 0 20 -6 19 -37 -1
-36 -2 -36 -8 -9 -9 41 -31 46 -31 7 0 -17 -4 -31 -10 -31 -5 0 -10 23 -10 50
0 28 5 50 10 50 6 0 10 -7 10 -15z m440 -35 c0 -27 -4 -50 -10 -50 -5 0 -10
23 -10 50 0 28 5 50 10 50 6 0 10 -22 10 -50z m6091 33 c13 -16 12 -17 -3 -4
-10 7 -18 15 -18 17 0 8 8 3 21 -13z m-6572 -21 c-14 -5 -11 -50 4 -55 7 -3 5
-6 -5 -6 -13 -1 -18 7 -18 29 0 17 -4 30 -10 30 -5 0 -10 -7 -10 -15 0 -10
-10 -15 -27 -15 -29 0 -22 -15 12 -23 15 -4 14 -5 -7 -6 -32 -1 -51 25 -37 51
7 13 20 18 41 16 18 -1 33 3 35 9 4 10 8 10 18 0 7 -7 9 -13 4 -15z m7458 -38
c-15 -13 -36 -24 -45 -24 -10 0 -2 8 16 17 27 13 33 21 29 41 -4 22 -3 23 12
7 15 -15 14 -18 -12 -41z m1206 36 c-4 -14 2 -23 21 -31 14 -7 26 -16 26 -21
0 -15 -37 -8 -54 11 -14 15 -15 24 -6 40 14 26 20 27 13 1z m1502 -35 l0 -50
-50 0 -50 0 -3 39 c-5 60 1 68 55 64 l48 -3 0 -50z m-12237 34 c78 -2 65 -6
-30 -11 -53 -3 -68 -1 -68 10 0 9 6 12 16 8 9 -3 46 -7 82 -7z m1309 5 c-3 -3
-12 -4 -19 -1 -8 3 -5 6 6 6 11 1 17 -2 13 -5z m46 -1 c-7 -2 -19 -2 -25 0 -7
3 -2 5 12 5 14 0 19 -2 13 -5z m34 -70 c-2 -16 -4 -3 -4 27 0 30 2 43 4 28 2
-16 2 -40 0 -55z m40 71 c-3 -3 -12 -4 -19 -1 -8 3 -5 6 6 6 11 1 17 -2 13 -5z
m61 -1 c-22 -6 -23 -12 -1 -28 19 -14 9 -36 -15 -34 -15 1 -15 2 1 6 21 6 22
12 0 28 -19 14 -9 36 15 34 15 -1 15 -2 0 -6z m220 -30 c3 -31 1 -33 -27 -33
-36 0 -44 28 -11 37 11 3 20 10 20 15 0 6 -7 8 -15 4 -8 -3 -15 -1 -15 5 0 6
10 9 23 7 17 -2 23 -11 25 -35z m38 26 c4 -8 9 -7 15 2 4 7 11 10 15 6 4 -4 3
-12 -4 -19 -7 -7 -8 -17 -1 -30 6 -12 6 -18 -1 -18 -5 0 -10 5 -10 12 0 9 -3
9 -12 0 -17 -17 -33 -15 -19 2 9 11 10 20 1 35 -11 22 3 31 16 10z m64 -24 c0
-19 -4 -35 -10 -35 -5 0 -10 16 -10 35 0 19 5 35 10 35 6 0 10 -16 10 -35z
m110 13 l9 -23 7 23 c3 12 10 22 15 22 11 0 11 -1 -2 -39 -14 -40 -25 -39 -43
2 l-14 32 -1 -32 c-1 -45 -21 -42 -21 2 0 29 4 35 20 35 12 0 25 -10 30 -22z
m297 0 l10 -23 7 23 c4 12 12 22 17 22 12 0 -14 -63 -28 -67 -6 -2 -13 4 -16
14 -2 10 -8 26 -12 36 -11 25 10 21 22 -5z m111 0 c3 -14 -3 -18 -24 -18 -30
0 -23 -14 11 -23 12 -4 9 -5 -9 -4 -37 2 -55 29 -36 52 17 20 54 16 58 -7z
m45 15 c-7 -2 -13 -18 -13 -34 0 -16 -4 -29 -10 -29 -5 0 -10 16 -10 35 0 30
3 35 23 34 12 0 16 -3 10 -6z m67 -2 c0 -5 -8 -8 -17 -7 -12 1 -18 -6 -18 -19
0 -13 6 -20 18 -19 9 1 17 -3 17 -8 0 -15 -42 -5 -53 14 -8 12 -7 21 2 32 14
17 51 22 51 7z m70 -11 c9 -18 8 -20 -15 -20 -31 0 -33 -17 -2 -23 15 -4 12
-5 -8 -4 -30 2 -43 22 -31 53 8 21 44 17 56 -6z m134 4 c16 -43 8 -54 -39 -52
-54 2 -57 10 -10 28 19 7 32 17 29 22 -4 5 -12 7 -20 4 -8 -3 -14 -1 -14 4 0
17 47 11 54 -6z m81 -19 c0 -23 -5 -31 -22 -33 -13 -2 -23 -10 -23 -18 0 -8
-4 -14 -10 -14 -5 0 -10 23 -10 51 l0 50 33 -3 c28 -3 32 -6 32 -33z m80 0 c0
-23 -5 -31 -22 -33 -13 -2 -23 -10 -23 -18 0 -8 -4 -14 -10 -14 -5 0 -10 23
-10 51 l0 50 33 -3 c28 -3 32 -6 32 -33z m6100 15 c10 -11 16 -20 13 -20 -3 0
-13 9 -23 20 -10 11 -16 20 -13 20 3 0 13 -9 23 -20z m3735 0 c0 -9 -14 -14
-24 -7 -3 1 -16 -9 -29 -22 -14 -12 -31 -20 -37 -16 -6 4 -17 2 -25 -5 -10 -9
-15 -6 -20 10 -9 28 -3 33 53 41 72 10 82 10 82 -1z m400 0 c0 -5 -7 -10 -15
-10 -8 0 -15 5 -15 10 0 6 7 10 15 10 8 0 15 -4 15 -10z m50 0 c0 -5 -4 -10
-10 -10 -5 0 -10 5 -10 10 0 6 5 10 10 10 6 0 10 -4 10 -10z m50 0 c0 -5 -4
-10 -10 -10 -5 0 -10 5 -10 10 0 6 5 10 10 10 6 0 10 -4 10 -10z m-11710 -35
c-7 -8 -18 -15 -24 -15 -6 0 -3 5 7 11 9 5 17 18 18 27 0 11 2 12 6 4 3 -7 -1
-19 -7 -27z m7180 23 c0 -5 -13 -8 -30 -8 -16 0 -30 3 -30 8 0 4 14 7 30 7 17
0 30 -3 30 -7z m431 -19 c7 -14 5 -23 -11 -39 -16 -16 -25 -18 -39 -11 -28 16
-33 39 -11 61 22 22 45 17 61 -11z m2747 24 c-10 -2 -26 -2 -35 0 -10 3 -2 5
17 5 19 0 27 -2 18 -5z m-11828 -28 c13 -14 21 -27 18 -30 -2 -3 -17 9 -33 25
-16 17 -24 30 -19 30 6 0 21 -11 34 -25z m10875 15 c18 -8 17 -9 -7 -9 -15 -1
-30 4 -33 9 -7 12 12 12 40 0z m-8645 -20 c0 -5 -4 -10 -10 -10 -5 0 -10 5
-10 10 0 6 5 10 10 10 6 0 10 -4 10 -10z m9598 3 c-10 -2 -26 -2 -35 0 -10 3
-2 5 17 5 19 0 27 -2 18 -5z m-2871 -25 c-3 -8 -6 -5 -6 6 -1 11 2 17 5 13 3
-3 4 -12 1 -19z m3811 10 c-6 -18 -25 -20 -31 -3 -5 10 0 15 14 15 12 0 19 -5
17 -12z m-168 -28 c0 -5 -5 -10 -11 -10 -5 0 -7 5 -4 10 3 6 8 10 11 10 2 0 4
-4 4 -10z m588 -1155 c-2 -5 -7 -9 -13 -7 -5 1 -2 -4 9 -12 11 -9 16 -22 13
-31 -7 -17 -42 -21 -52 -5 -3 6 2 10 11 10 16 0 16 1 1 18 -13 14 -14 21 -5
30 14 14 41 12 36 -3z m-2 -417 c5 -7 9 -24 9 -38 0 -20 -6 -26 -27 -28 -26
-3 -28 -1 -28 31 0 18 3 37 7 40 10 11 30 8 39 -5z m-20 -440 l7 -23 8 23 c5
12 12 22 18 22 11 0 20 -59 9 -66 -4 -3 -8 3 -8 13 -1 17 -1 17 -14 1 -7 -10
-16 -18 -20 -18 -3 0 -7 8 -7 18 -1 16 -2 16 -6 0 -8 -31 -23 -19 -23 17 0 40
24 49 36 13z m74 -358 c0 -10 -37 -20 -44 -12 -15 15 -4 29 19 24 14 -2 25 -8
25 -12z m0 -448 c0 -49 -37 -71 -42 -24 -3 23 -8 27 -40 30 -61 5 -44 22 22
22 59 0 60 0 60 -28z m-76 -18 c21 -20 20 -27 -4 -49 -19 -17 -21 -17 -40 0
-11 10 -20 22 -20 26 0 10 29 39 40 39 5 0 16 -7 24 -16z m25 -102 c-71 -4
-99 10 -34 18 28 3 58 1 68 -5 14 -8 7 -11 -34 -13z m14 -374 l32 -1 -32 -4
c-29 -4 -33 -8 -35 -36 l-1 -32 -4 33 c-4 27 -9 32 -31 33 l-27 2 28 4 c21 3
27 10 28 31 l2 27 4 -27 c4 -23 10 -28 36 -30z m42 -3108 l0 -55 -75 0 -75 0
-3 44 c-5 70 -2 72 80 69 l73 -3 0 -55z m-50 -349 c4 -12 12 -17 24 -14 22 6
36 -24 20 -43 -9 -11 -9 -17 0 -28 15 -18 3 -48 -18 -44 -9 2 -24 -6 -33 -17
l-18 -20 -17 20 c-10 11 -25 19 -34 17 -21 -4 -33 26 -18 44 9 11 9 17 0 28
-16 19 -2 49 19 43 9 -2 22 4 29 14 15 24 38 24 46 0z"/>
<path d="M180 7511 c0 -22 5 -43 10 -46 6 -4 10 12 10 39 0 25 -4 46 -10 46
-5 0 -10 -18 -10 -39z"/>
<path d="M210 7504 l0 -45 43 3 c42 3 42 3 45 46 l3 42 -45 0 -46 0 0 -46z"/>
<path d="M1530 7525 c0 -8 4 -15 10 -15 5 0 7 7 4 15 -4 8 -8 15 -10 15 -2 0
-4 -7 -4 -15z"/>
<path d="M1604 7516 c-8 -22 3 -33 18 -18 9 9 9 15 0 24 -9 9 -13 7 -18 -6z"/>
<path d="M12930 7510 c0 -27 3 -30 30 -30 27 0 30 3 30 30 0 27 -3 30 -30 30
-27 0 -30 -3 -30 -30z"/>
<path d="M1040 7500 c0 -5 5 -10 10 -10 6 0 10 5 10 10 0 6 -4 10 -10 10 -5 0
-10 -4 -10 -10z"/>
<path d="M1674 7516 c-8 -22 3 -33 18 -18 9 9 9 15 0 24 -9 9 -13 7 -18 -6z"/>
<path d="M1247 7234 c-13 -13 -7 -24 14 -24 11 0 19 5 17 12 -5 14 -22 21 -31
12z"/>
<path d="M1210 7155 l0 -45 50 0 50 0 0 45 0 45 -50 0 -50 0 0 -45z"/>
<path d="M11530 7230 c0 -5 -9 -10 -20 -10 -13 0 -20 -7 -20 -19 0 -11 -6 -22
-12 -25 -10 -5 -10 -7 0 -12 6 -3 12 -14 12 -25 0 -12 7 -19 20 -19 11 0 20
-5 20 -12 0 -9 3 -9 12 0 7 7 20 12 30 12 10 0 18 7 18 15 0 8 -7 15 -15 15
-8 0 -15 9 -15 20 0 11 7 20 15 20 8 0 15 7 15 15 0 8 -9 15 -20 15 -11 0 -20
5 -20 10 0 6 -4 10 -10 10 -5 0 -10 -4 -10 -10z"/>
<path d="M9749 7193 c-13 -16 -12 -17 4 -4 16 13 21 21 13 21 -2 0 -10 -8 -17
-17z"/>
<path d="M9710 7171 c0 -10 7 -22 16 -25 12 -5 15 -2 10 10 -3 8 -6 20 -6 25
0 5 -4 9 -10 9 -5 0 -10 -9 -10 -19z"/>
<path d="M2285 7170 c-3 -5 1 -10 9 -10 9 0 16 5 16 10 0 6 -4 10 -9 10 -6 0
-13 -4 -16 -10z"/>
<path d="M12444 7176 c-3 -8 -4 -27 -2 -43 3 -26 7 -28 43 -28 l40 0 0 40 c0
39 -1 40 -38 43 -26 2 -39 -1 -43 -12z m64 -27 c15 -1 15 -2 0 -6 -10 -2 -19
-12 -19 -21 -1 -15 -2 -15 -6 1 -2 9 -12 18 -21 18 -15 1 -15 2 1 6 9 2 18 12
18 21 1 15 2 15 6 0 2 -10 12 -19 21 -19z"/>
<path d="M1970 7140 c0 -5 5 -10 10 -10 6 0 10 5 10 10 0 6 -4 10 -10 10 -5 0
-10 -4 -10 -10z"/>
<path d="M2585 7170 c-3 -5 1 -10 9 -10 9 0 16 5 16 10 0 6 -4 10 -9 10 -6 0
-13 -4 -16 -10z"/>
<path d="M2770 7170 c0 -5 7 -10 16 -10 8 0 12 5 9 10 -3 6 -10 10 -16 10 -5
0 -9 -4 -9 -10z"/>
<path d="M2900 7140 c0 -5 4 -10 9 -10 6 0 13 5 16 10 3 6 -1 10 -9 10 -9 0
-16 -4 -16 -10z"/>
<path d="M2983 7164 c-8 -22 15 -44 26 -25 10 16 4 41 -10 41 -5 0 -12 -7 -16
-16z"/>
<path d="M3063 7164 c-8 -21 13 -42 28 -27 13 13 5 43 -11 43 -6 0 -13 -7 -17
-16z"/>
<path d="M12868 7153 c7 -3 16 -2 19 1 4 3 -2 6 -13 5 -11 0 -14 -3 -6 -6z"/>
<path d="M9294 7136 c-8 -8 -7 -15 0 -22 8 -8 15 -7 22 0 8 8 7 15 0 22 -8 8
-15 7 -22 0z"/>
<path d="M13390 4230 c0 -11 5 -20 10 -20 6 0 10 9 10 20 0 11 -4 20 -10 20
-5 0 -10 -9 -10 -20z"/>
<path d="M13360 670 l0 -50 45 0 45 0 0 50 0 50 -45 0 -45 0 0 -50z m76 9 c10
-16 -9 -29 -34 -23 -35 10 -26 25 20 33 4 0 10 -4 14 -10z"/>
<path d="M13460 670 c0 -43 3 -50 20 -50 17 0 20 7 20 50 0 43 -3 50 -20 50
-17 0 -20 -7 -20 -50z"/>
<path d="M13416 304 c-4 -10 -14 -14 -25 -11 -23 6 -35 -15 -18 -32 8 -8 8
-14 0 -22 -16 -16 -5 -39 14 -32 9 4 22 -1 29 -12 14 -18 14 -18 28 0 7 11 20
16 29 12 19 -7 30 16 14 32 -8 8 -8 14 0 22 17 17 5 38 -18 32 -11 -3 -21 1
-25 11 -3 9 -10 16 -14 16 -4 0 -11 -7 -14 -16z m34 -40 c11 -12 10 -18 -3
-32 -16 -15 -18 -15 -34 0 -13 14 -14 20 -3 32 7 9 16 16 20 16 4 0 13 -7 20
-16z"/>
<path d="M13420 250 c0 -5 5 -10 10 -10 6 0 10 5 10 10 0 6 -4 10 -10 10 -5 0
-10 -4 -10 -10z"/>
<path d="M9522 6463 c-67 -97 -54 -211 33 -298 94 -94 218 -101 317 -16 46 40
88 123 88 176 0 35 0 35 -46 35 -35 0 -45 -3 -41 -14 4 -10 -6 -15 -36 -18
-23 -3 -45 -3 -50 -1 -4 3 -5 26 -1 52 6 50 -1 63 -44 74 -16 4 -30 -1 -43
-14 -10 -10 -28 -19 -39 -19 -23 0 -27 -18 -5 -26 8 -4 15 -10 15 -15 0 -14
-26 -11 -65 8 -25 12 -35 23 -35 40 0 13 5 23 10 23 16 0 11 27 -6 34 -26 10
-32 7 -52 -21z m348 -243 c0 -5 -7 -10 -15 -10 -8 0 -15 5 -15 10 0 6 7 10 15
10 8 0 15 -4 15 -10z"/>
<path d="M9814 6438 c-3 -4 1 -8 9 -8 8 0 29 -3 47 -7 22 -4 31 -3 27 4 -8 13
-76 22 -83 11z"/>
<path d="M3523 6403 c-7 -3 -13 -11 -13 -19 0 -8 -6 -14 -12 -14 -10 0 -10 -2
-1 -8 6 -4 13 -28 16 -52 l4 -45 1 48 c1 30 7 47 15 47 8 0 7 4 -3 10 -13 9
-13 11 0 19 16 11 11 21 -7 14z"/>
<path d="M3880 6335 c0 -37 4 -65 10 -65 6 0 10 18 10 40 0 71 55 64 63 -8 l4
-37 1 41 c2 47 -16 69 -48 61 -15 -4 -20 0 -20 14 0 10 -4 19 -10 19 -6 0 -10
-28 -10 -65z"/>
<path d="M3275 6357 c-7 -18 -16 -46 -20 -63 -5 -24 -4 -26 5 -11 14 22 70 24
70 2 0 -8 4 -15 9 -15 5 0 1 27 -11 60 -11 33 -24 60 -29 60 -6 0 -16 -15 -24
-33z m45 -39 c0 -5 -11 -8 -24 -8 -24 0 -24 2 -14 31 l11 32 13 -24 c7 -13 13
-27 14 -31z"/>
<path d="M3818 6379 c-2 -6 -1 -32 2 -57 4 -37 9 -47 25 -49 11 -2 14 0 8 3
-16 7 -17 84 -2 84 6 0 4 7 -5 15 -17 18 -23 19 -28 4z"/>
<path d="M3371 6368 c-1 -4 4 -19 11 -33 9 -19 9 -28 0 -37 -7 -7 -12 -17 -12
-22 0 -6 8 -2 16 9 14 19 16 19 28 3 20 -28 30 -21 12 7 -15 23 -15 27 0 53
l16 27 -20 -22 -20 -23 -15 23 c-9 12 -16 19 -16 15z"/>
<path d="M3463 6320 c0 -30 2 -43 4 -27 2 15 2 39 0 55 -2 15 -4 2 -4 -28z"/>
<path d="M3563 6320 c0 -30 2 -43 4 -27 2 15 2 39 0 55 -2 15 -4 2 -4 -28z"/>
<path d="M3601 6365 c-2 -20 32 -96 42 -92 12 4 39 76 34 91 -2 6 -10 -9 -19
-34 l-15 -45 -21 45 c-11 25 -21 41 -21 35z"/>
<path d="M3717 6352 c-22 -24 -21 -45 3 -67 20 -18 70 -15 70 5 0 6 -8 5 -19
-1 -10 -7 -26 -9 -35 -6 -21 8 -22 63 -1 71 21 8 45 -3 45 -20 0 -8 5 -14 10
-14 16 0 12 15 -8 33 -24 22 -45 21 -65 -1z"/>
<path d="M3693 5075 c-1 -38 2 -59 6 -47 l6 24 19 -21 c11 -12 24 -21 29 -21
6 0 0 11 -13 25 -22 23 -22 26 -7 43 26 29 20 38 -7 13 l-25 -23 -4 38 c-2 22
-4 8 -4 -31z"/>
<path d="M3252 5068 c1 -50 2 -54 5 -20 2 23 7 42 11 42 4 0 15 -19 25 -43
l18 -42 24 45 24 45 1 -42 c0 -24 5 -43 10 -43 6 0 10 27 10 60 0 72 -14 77
-41 15 -11 -25 -24 -43 -28 -41 -4 3 -16 23 -26 46 -10 22 -22 40 -27 40 -4 0
-7 -28 -6 -62z"/>
<path d="M3828 5120 c-2 -7 -1 -33 2 -58 4 -37 9 -47 25 -50 18 -2 18 -2 3 8
-12 7 -18 23 -18 45 0 26 4 35 18 36 13 0 14 2 2 6 -8 3 -18 10 -21 16 -4 5
-8 4 -11 -3z"/>
<path d="M4859 5118 c-5 -51 11 -108 29 -107 10 0 12 3 5 6 -16 6 -17 83 -2
83 6 0 4 7 -5 15 -18 18 -26 19 -27 3z"/>
<path d="M3415 5093 c-18 -17 -19 -37 -5 -64 8 -14 20 -18 50 -17 l40 1 0 47
c0 46 0 46 -35 47 -20 1 -42 -6 -50 -14z m53 -5 c7 -7 12 -22 12 -34 0 -31
-39 -43 -57 -18 -17 23 -16 29 3 48 19 19 26 20 42 4z"/>
<path d="M3532 5055 c1 -44 2 -45 5 -12 2 21 11 41 19 44 21 8 17 19 -6 19
-18 0 -20 -6 -18 -51z"/>
<path d="M3603 5060 c0 -30 2 -43 4 -27 2 15 2 39 0 55 -2 15 -4 2 -4 -28z"/>
<path d="M3783 5060 c0 -30 2 -43 4 -27 2 15 2 39 0 55 -2 15 -4 2 -4 -28z"/>
<path d="M3896 5092 c-34 -38 -4 -83 52 -79 31 2 32 4 32 47 0 44 -1 45 -34
47 -22 2 -39 -3 -50 -15z m58 -8 c19 -19 20 -25 3 -48 -18 -25 -57 -13 -57 18
0 21 17 46 31 46 4 0 15 -7 23 -16z"/>
<path d="M4062 5055 c1 -42 2 -44 5 -13 8 72 62 76 65 4 l1 -41 4 37 c8 72 63
79 63 8 0 -22 5 -40 10 -40 13 0 13 41 0 74 -10 26 -43 36 -55 16 -4 -6 -13
-7 -23 -1 -10 5 -30 8 -45 8 -26 -2 -27 -4 -25 -52z"/>
<path d="M4256 5094 c-19 -18 -20 -38 -6 -65 13 -23 52 -25 70 -4 15 18 7 19
-19 3 -15 -9 -23 -9 -34 0 -17 14 -11 61 9 69 17 6 46 -15 38 -28 -3 -5 0 -9
5 -9 15 0 14 23 -1 38 -17 17 -44 15 -62 -4z"/>
<path d="M4362 5055 c1 -49 2 -49 5 -8 7 71 58 67 66 -5 l4 -37 1 41 c2 47
-13 65 -52 62 -25 -2 -26 -5 -24 -53z"/>
<path d="M4482 5098 c-17 -17 -15 -63 3 -78 17 -14 65 -6 65 11 0 8 -5 8 -15
-1 -21 -18 -55 -3 -55 24 0 33 23 50 49 36 12 -6 21 -7 21 -1 0 20 -50 27 -68
9z"/>
<path d="M4592 5098 c-16 -16 -15 -63 1 -77 7 -6 28 -9 45 -8 31 2 32 3 32 52
0 32 -3 45 -9 36 -6 -9 -11 -10 -15 -2 -9 15 -39 14 -54 -1z m56 -10 c17 -17
15 -43 -4 -59 -31 -26 -70 25 -44 56 15 18 32 19 48 3z"/>
<path d="M4700 5059 c0 -27 5 -49 10 -49 6 0 10 16 10 36 0 23 6 41 17 49 15
11 14 13 -10 13 -26 0 -27 -3 -27 -49z"/>
<path d="M4773 5060 c0 -30 2 -43 4 -27 2 15 2 39 0 55 -2 15 -4 2 -4 -28z"/>
<path d="M4937 5092 c-22 -24 -21 -45 3 -67 20 -18 70 -15 70 5 0 6 -8 5 -19
-1 -10 -7 -26 -9 -35 -6 -21 8 -22 63 -1 71 21 8 45 -3 45 -20 0 -8 5 -14 10
-14 16 0 12 15 -8 33 -24 22 -45 21 -65 -1z"/>
<path d="M5042 5055 c1 -42 2 -44 5 -13 8 72 62 76 65 4 l1 -41 4 37 c8 72 63
79 63 8 0 -22 5 -40 10 -40 13 0 13 41 0 74 -10 26 -43 36 -55 16 -4 -6 -13
-7 -23 -1 -10 5 -30 8 -45 8 -26 -2 -27 -4 -25 -52z"/>
<path d="M5232 5098 c-16 -16 -15 -63 1 -76 6 -6 29 -10 50 -9 l38 1 -3 44
c-3 43 -4 45 -38 49 -20 2 -41 -2 -48 -9z m56 -10 c17 -17 15 -43 -4 -59 -31
-26 -70 25 -44 56 15 18 32 19 48 3z"/>
<path d="M5352 5055 c1 -49 2 -49 5 -8 7 71 58 67 66 -5 l4 -37 1 41 c2 47
-13 65 -52 62 -25 -2 -26 -5 -24 -53z"/>
<path d="M3693 4595 c-25 -11 -31 -18 -26 -32 6 -15 4 -16 -9 -5 -13 10 -20 7
-46 -23 -73 -83 -64 -198 22 -273 145 -127 366 12 316 198 -29 108 -161 177
-257 135z"/>
<path d="M4490 4460 c0 -16 -5 -19 -24 -14 -25 6 -56 -17 -56 -42 0 -37 20
-54 60 -52 l40 1 0 64 c0 35 -4 63 -10 63 -5 0 -10 -9 -10 -20z m-12 -32 c7
-7 12 -22 12 -34 0 -31 -39 -43 -57 -18 -17 23 -16 29 3 48 19 19 26 20 42 4z"/>
<path d="M4050 4410 c0 -59 0 -60 28 -60 43 0 72 26 72 64 0 42 -15 56 -62 56
l-38 0 0 -60z m83 29 c16 -25 0 -68 -28 -75 -35 -9 -45 2 -45 52 0 45 0 45 31
42 18 -2 36 -10 42 -19z"/>
<path d="M4691 4408 c1 -35 4 -51 6 -37 3 20 11 28 32 32 55 11 50 67 -5 67
l-34 0 1 -62z m59 33 c0 -17 -18 -31 -41 -31 -5 0 -9 11 -9 25 0 20 5 25 25
25 18 0 25 -5 25 -19z"/>
<path d="M4908 4460 c-2 -7 -1 -33 2 -58 4 -37 9 -47 25 -50 18 -2 18 -2 3 8
-12 7 -18 23 -18 45 0 26 4 35 18 36 13 0 14 2 2 6 -8 3 -18 10 -21 16 -4 5
-8 4 -11 -3z"/>
<path d="M4186 4432 c-34 -38 -4 -83 52 -79 31 2 32 4 32 47 0 44 -1 45 -34
47 -22 2 -39 -3 -50 -15z m58 -8 c19 -19 20 -25 3 -48 -18 -25 -57 -13 -57 18
0 21 17 46 31 46 4 0 15 -7 23 -16z"/>
<path d="M4301 4395 l1 -50 8 38 c8 45 23 62 44 54 11 -4 16 -19 16 -47 0 -22
5 -40 10 -40 13 0 13 56 0 81 -8 14 -20 18 -45 16 l-35 -2 1 -50z"/>
<path d="M4531 4444 c-1 -6 6 -28 15 -49 9 -22 13 -49 9 -64 -10 -42 11 -13
34 47 12 29 21 58 20 65 0 7 -8 -8 -18 -33 l-18 -44 -21 44 c-11 25 -21 40
-21 34z"/>
<path d="M4792 4414 c-2 -49 11 -63 56 -62 31 1 32 2 32 44 0 24 -4 46 -10 49
-6 4 -10 -10 -10 -35 0 -71 -55 -64 -63 8 l-4 37 -1 -41z"/>
<path d="M4971 4395 c1 -50 1 -50 9 -12 4 21 15 44 26 51 18 13 17 14 -9 13
-26 -2 -27 -4 -26 -52z"/>
<path d="M5046 4432 c-34 -38 -4 -83 52 -79 31 2 32 4 32 47 0 44 -1 45 -34
47 -22 2 -39 -3 -50 -15z m58 -8 c19 -19 20 -25 3 -48 -18 -25 -57 -13 -57 18
0 21 17 46 31 46 4 0 15 -7 23 -16z"/>
<path d="M4133 3915 c0 -38 2 -53 4 -32 2 20 2 52 0 70 -2 17 -4 1 -4 -38z"/>
<path d="M4520 3915 c0 -37 4 -65 10 -65 6 0 10 10 10 22 0 21 0 21 27 -3 l27
-24 -18 28 c-16 26 -16 30 -2 46 26 28 18 37 -9 11 l-25 -23 0 36 c0 20 -4 37
-10 37 -6 0 -10 -28 -10 -65z"/>
<path d="M4973 3915 c0 -38 2 -53 4 -32 2 20 2 52 0 70 -2 17 -4 1 -4 -38z"/>
<path d="M3573 3910 c-1 -43 2 -55 6 -35 5 25 12 31 38 33 29 3 32 1 36 -30 2
-18 4 -4 4 32 0 36 -2 53 -4 38 -4 -24 -9 -28 -38 -28 -29 0 -34 4 -38 28 -2
15 -4 -2 -4 -38z"/>
<path d="M3705 3933 c-18 -17 -19 -37 -5 -64 8 -14 20 -18 50 -17 l40 1 0 47
c0 46 0 46 -35 47 -20 1 -42 -6 -50 -14z m53 -5 c7 -7 12 -22 12 -34 0 -31
-39 -43 -57 -18 -17 23 -16 29 3 48 19 19 26 20 42 4z"/>
<path d="M3823 3900 c0 -30 2 -43 4 -27 2 15 2 39 0 55 -2 15 -4 2 -4 -28z"/>
<path d="M3917 3943 c-16 -15 -6 -43 18 -49 14 -3 25 -12 25 -20 0 -17 -22
-18 -39 -1 -11 10 -13 9 -9 -3 6 -20 35 -25 53 -10 22 19 18 30 -15 41 -16 6
-30 15 -30 19 0 16 21 23 33 11 17 -17 31 -13 17 4 -13 16 -42 20 -53 8z"/>
<path d="M4012 3938 c-16 -16 -15 -63 1 -76 6 -6 29 -10 50 -9 l38 1 -3 44
c-3 43 -4 45 -38 49 -20 2 -41 -2 -48 -9z m56 -10 c17 -17 15 -43 -4 -59 -31
-26 -70 25 -44 56 15 18 32 19 48 3z"/>
<path d="M4176 3932 c-34 -38 -4 -83 52 -79 31 2 32 4 32 47 0 44 -1 45 -34
47 -22 2 -39 -3 -50 -15z m58 -8 c19 -19 20 -25 3 -48 -18 -25 -57 -13 -57 18
0 21 17 46 31 46 4 0 15 -7 23 -16z"/>
<path d="M4291 3895 l1 -50 8 38 c8 45 23 62 44 54 11 -4 16 -19 16 -47 0 -53
18 -52 22 3 2 34 7 42 23 42 16 0 21 -8 23 -42 2 -24 7 -43 13 -43 12 0 12 56
-1 81 -11 20 -45 26 -55 9 -5 -8 -11 -8 -19 -1 -7 6 -27 9 -44 8 -32 -2 -32
-3 -31 -52z"/>
<path d="M4627 3932 c-22 -24 -21 -45 3 -67 20 -18 70 -15 70 5 0 6 -8 5 -19
-1 -10 -7 -26 -9 -35 -6 -21 8 -22 63 -1 71 21 8 45 -3 45 -20 0 -8 5 -14 10
-14 16 0 12 15 -8 33 -24 22 -45 21 -65 -1z"/>
<path d="M4732 3895 c1 -42 2 -44 5 -13 8 72 59 76 66 5 l4 -42 1 48 c2 49 2
49 -50 51 -27 2 -28 0 -26 -49z"/>
<path d="M4852 3938 c-16 -16 -15 -63 1 -76 6 -6 29 -10 50 -9 l38 1 -3 44
c-3 43 -4 45 -38 49 -20 2 -41 -2 -48 -9z m56 -10 c17 -17 15 -43 -4 -59 -31
-26 -70 25 -44 56 15 18 32 19 48 3z"/>
<path d="M3582 3528 c-16 -16 -15 -79 1 -102 32 -44 85 14 69 76 -6 25 -14 34
-33 36 -13 2 -30 -3 -37 -10z m56 -44 c4 -48 -18 -75 -43 -54 -18 15 -20 71
-3 88 23 23 43 9 46 -34z"/>
<path d="M3758 3526 c-16 -8 -24 -22 -26 -45 -6 -59 49 -92 94 -55 19 15 19
16 -1 9 -45 -16 -53 -16 -69 0 -19 19 -21 56 -4 73 15 15 54 16 63 2 3 -5 11
-10 17 -10 16 0 -9 27 -31 33 -11 2 -30 -1 -43 -7z"/>
<path d="M4588 3520 c-2 -7 -1 -33 2 -58 4 -37 9 -47 25 -50 18 -2 18 -2 3 8
-12 7 -18 23 -18 45 0 26 4 35 18 36 13 0 14 2 2 6 -8 3 -18 10 -21 16 -4 5
-8 4 -11 -3z"/>
<path d="M3882 3498 c-7 -7 -12 -24 -12 -38 0 -31 17 -50 45 -50 29 0 45 19
45 52 0 40 -51 63 -78 36z m56 -10 c17 -17 15 -43 -4 -59 -31 -26 -70 25 -44
56 15 18 32 19 48 3z"/>
<path d="M3992 3455 c1 -49 2 -49 5 -8 7 71 58 67 66 -5 l4 -37 1 36 c4 74 57
74 65 1 4 -32 4 -31 3 7 -1 52 -24 74 -56 54 -12 -8 -21 -9 -25 -3 -4 6 -20 9
-36 8 -28 -2 -29 -4 -27 -53z"/>
<path d="M4171 3455 l1 -50 8 38 c8 45 23 62 44 54 11 -4 16 -19 16 -47 0 -53
18 -52 22 3 2 34 7 42 23 42 16 0 21 -8 23 -42 2 -24 7 -43 13 -43 12 0 12 56
-1 81 -11 20 -45 26 -55 9 -5 -8 -11 -8 -19 -1 -7 6 -27 9 -44 8 -32 -2 -32
-3 -31 -52z"/>
<path d="M4366 3494 c-19 -18 -20 -38 -6 -65 13 -23 52 -25 70 -4 15 18 7 19
-19 3 -15 -9 -23 -9 -34 0 -17 14 -11 61 9 69 17 6 46 -15 38 -28 -3 -5 0 -9
5 -9 15 0 14 23 -1 38 -17 17 -44 15 -62 -4z"/>
<path d="M4472 3455 c1 -42 2 -44 5 -13 8 72 59 76 66 5 l4 -42 1 48 c2 49 2
49 -50 51 -27 2 -28 0 -26 -49z"/>
<path d="M4657 3503 c-16 -15 -6 -43 18 -49 14 -3 25 -12 25 -20 0 -17 -22
-18 -39 -1 -11 10 -13 9 -9 -3 6 -20 35 -25 53 -10 22 19 18 30 -15 41 -16 6
-30 15 -30 19 0 16 21 23 33 11 17 -17 31 -13 17 4 -13 16 -42 20 -53 8z"/>
<path d="M3597 2580 c-15 -17 -29 -49 -32 -74 -23 -148 109 -265 253 -227 76
21 153 130 140 197 -4 24 -41 30 -60 10 -8 -8 -30 -16 -49 -18 l-34 -3 3 46
c3 44 1 48 -25 56 -22 8 -37 5 -67 -10 -34 -18 -37 -22 -22 -32 34 -26 1 -29
-44 -5 -17 9 -21 18 -16 40 9 46 -16 57 -47 20z m283 -200 c0 -5 -4 -10 -10
-10 -5 0 -10 5 -10 10 0 6 5 10 10 10 6 0 10 -4 10 -10z"/>
<path d="M3840 2558 c0 -4 16 -8 35 -8 19 0 35 2 35 4 0 2 -16 6 -35 8 -19 2
-35 0 -35 -4z"/>
<path d="M4323 2475 c-1 -57 1 -63 7 -32 8 45 23 62 44 54 11 -4 16 -19 16
-47 0 -22 5 -40 10 -40 13 0 13 56 -1 82 -8 15 -17 19 -39 14 -24 -4 -29 -2
-33 17 -2 12 -4 -9 -4 -48z"/>
<path d="M4052 2468 c1 -50 2 -54 5 -20 2 23 7 42 11 42 4 0 15 -19 25 -43
l18 -42 24 45 24 45 1 -42 c0 -24 5 -43 10 -43 6 0 10 27 10 60 0 72 -14 77
-41 15 -11 -25 -24 -43 -28 -41 -4 3 -16 23 -26 46 -10 22 -22 40 -27 40 -4 0
-7 -28 -6 -62z"/>
<path d="M4545 2497 c-7 -18 -16 -46 -20 -63 -5 -24 -4 -26 5 -11 14 22 70 24
70 2 0 -8 4 -15 9 -15 5 0 1 27 -11 60 -11 33 -24 60 -29 60 -6 0 -16 -15 -24
-33z m45 -39 c0 -5 -11 -8 -24 -8 -24 0 -24 2 -14 31 l11 32 13 -24 c7 -13 13
-27 14 -31z"/>
<path d="M4216 2494 c-19 -18 -20 -38 -6 -65 15 -27 56 -24 76 6 15 23 15 27
0 50 -19 29 -47 32 -70 9z m52 -6 c7 -7 12 -22 12 -34 0 -31 -39 -43 -57 -18
-17 23 -16 29 3 48 19 19 26 20 42 4z"/>
<path d="M4640 2458 c0 -26 5 -48 10 -48 6 0 10 18 10 40 0 71 55 64 63 -8 l4
-37 1 41 c2 49 -11 63 -56 62 -32 -1 -32 -2 -32 -50z"/>
<path d="M4766 2492 c-21 -24 -20 -45 4 -67 13 -12 27 -15 45 -11 28 7 33 -5
9 -28 -11 -12 -20 -13 -34 -6 -28 15 -38 11 -16 -5 46 -35 76 -5 76 73 l0 57
-34 2 c-22 2 -39 -3 -50 -15z m58 -8 c19 -19 20 -25 3 -48 -18 -25 -57 -13
-57 18 0 21 17 46 31 46 4 0 15 -7 23 -16z"/>
<path d="M4891 2496 c-32 -38 9 -103 49 -78 17 11 20 10 20 -7 0 -27 -29 -42
-53 -29 -10 5 -21 7 -24 4 -3 -3 6 -10 19 -17 19 -8 31 -8 47 0 18 10 21 21
21 79 0 41 -4 62 -9 53 -6 -9 -11 -10 -15 -2 -10 16 -41 14 -55 -3z m57 -8
c17 -17 15 -43 -4 -59 -31 -26 -70 25 -44 56 15 18 32 19 48 3z"/>
<path d="M5012 2498 c-16 -16 -15 -63 1 -77 7 -6 28 -9 45 -8 31 2 32 3 32 52
0 32 -3 45 -9 36 -6 -9 -11 -10 -15 -2 -9 15 -39 14 -54 -1z m56 -10 c17 -17
15 -43 -4 -59 -31 -26 -70 25 -44 56 15 18 32 19 48 3z"/>
<path d="M4430 2420 c0 -5 5 -10 10 -10 6 0 10 5 10 10 0 6 -4 10 -10 10 -5 0
-10 -4 -10 -10z"/>
<path d="M3573 1975 c-1 -57 1 -63 7 -32 8 45 23 62 44 54 11 -4 16 -19 16
-47 0 -22 5 -40 10 -40 13 0 13 56 -1 82 -8 15 -17 19 -39 14 -24 -4 -29 -2
-33 17 -2 12 -4 -9 -4 -48z"/>
<path d="M5133 1975 c0 -38 2 -53 4 -32 2 20 2 52 0 70 -2 17 -4 1 -4 -38z"/>
<path d="M5532 1975 c0 -39 3 -60 7 -47 l6 24 19 -21 c11 -12 24 -21 29 -21 6
0 0 11 -13 25 l-23 25 23 25 c13 14 19 25 13 25 -5 0 -18 -10 -29 -21 l-19
-21 -6 38 c-5 30 -6 22 -7 -31z"/>
<path d="M5973 1975 c0 -38 2 -53 4 -32 2 20 2 52 0 70 -2 17 -4 1 -4 -38z"/>
<path d="M3695 1993 c-18 -17 -19 -37 -5 -64 8 -14 20 -18 50 -17 l40 1 0 47
c0 46 0 46 -35 47 -20 1 -42 -6 -50 -14z m53 -5 c7 -7 12 -22 12 -34 0 -31
-39 -43 -57 -18 -17 23 -16 29 3 48 19 19 26 20 42 4z"/>
<path d="M3813 1960 c0 -30 2 -43 4 -27 2 15 2 39 0 55 -2 15 -4 2 -4 -28z"/>
<path d="M3907 2003 c-16 -16 -5 -40 25 -51 26 -9 30 -14 20 -24 -10 -10 -17
-10 -33 1 -18 10 -20 10 -17 -1 3 -7 18 -13 34 -13 42 0 45 32 5 46 -17 6 -31
15 -31 19 0 16 21 23 33 11 17 -17 31 -13 17 4 -13 16 -42 20 -53 8z"/>
<path d="M4002 1998 c-7 -7 -12 -24 -12 -38 0 -14 5 -31 12 -38 17 -17 53 -15
68 3 15 18 7 19 -19 3 -25 -15 -48 2 -46 34 2 30 29 46 49 29 9 -7 13 -17 10
-22 -3 -5 0 -9 5 -9 15 0 14 23 -1 38 -7 7 -21 12 -33 12 -12 0 -26 -5 -33
-12z"/>
<path d="M4112 1955 c1 -49 2 -49 5 -8 7 71 58 67 66 -5 l4 -37 1 36 c4 74 57
74 65 1 4 -32 4 -31 3 7 -1 52 -24 74 -56 54 -12 -8 -21 -9 -25 -3 -4 6 -20 9
-36 8 -28 -2 -29 -4 -27 -53z"/>
<path d="M4292 1974 c-2 -49 11 -63 56 -62 31 1 32 2 32 44 0 24 -4 46 -10 49
-6 4 -10 -10 -10 -35 0 -71 -55 -64 -63 8 l-4 37 -1 -41z"/>
<path d="M4415 1993 c-18 -17 -19 -37 -5 -64 8 -14 20 -18 50 -17 l40 1 0 47
c0 46 0 46 -35 47 -20 1 -42 -6 -50 -14z m53 -5 c7 -7 12 -22 12 -34 0 -31
-39 -43 -57 -18 -17 23 -16 29 3 48 19 19 26 20 42 4z"/>
<path d="M4532 1955 c1 -42 2 -44 5 -13 8 72 59 76 66 5 l4 -42 1 48 c2 49 2
49 -50 51 -27 2 -28 0 -26 -49z"/>
<path d="M4651 1963 c12 -29 18 -57 14 -73 -10 -41 10 -11 35 53 12 32 20 60
17 63 -3 3 -10 -11 -17 -30 -15 -45 -25 -45 -40 -1 -6 19 -16 35 -20 35 -5 0
0 -21 11 -47z"/>
<path d="M4752 1998 c-16 -16 -15 -63 1 -76 6 -6 29 -10 50 -9 l38 1 -3 44
c-3 43 -4 45 -38 49 -20 2 -41 -2 -48 -9z m56 -10 c17 -17 15 -43 -4 -59 -31
-26 -70 25 -44 56 15 18 32 19 48 3z"/>
<path d="M4921 2001 c-20 -13 -6 -39 24 -47 14 -3 25 -10 25 -15 0 -17 -30
-22 -47 -8 -14 12 -16 12 -11 -1 3 -9 17 -15 34 -15 42 0 44 29 3 50 -23 13
-28 20 -20 28 9 9 16 8 31 -1 11 -7 20 -8 20 -3 0 8 -23 21 -38 21 -4 0 -13
-4 -21 -9z"/>
<path d="M5016 1992 c-34 -38 -4 -83 52 -79 31 2 32 4 32 47 0 44 -1 45 -34
47 -22 2 -39 -3 -50 -15z m58 -8 c19 -19 20 -25 3 -48 -18 -25 -57 -13 -57 18
0 21 17 46 31 46 4 0 15 -7 23 -16z"/>
<path d="M5182 1998 c-16 -16 -15 -63 1 -76 6 -6 29 -10 50 -9 l38 1 -3 44
c-3 43 -4 45 -38 49 -20 2 -41 -2 -48 -9z m56 -10 c17 -17 15 -43 -4 -59 -31
-26 -70 25 -44 56 15 18 32 19 48 3z"/>
<path d="M5302 1955 c1 -49 2 -49 5 -8 7 71 58 67 66 -5 l4 -37 1 36 c4 74 57
74 65 1 4 -32 4 -31 3 7 -1 52 -24 74 -56 54 -12 -8 -21 -9 -25 -3 -4 6 -20 9
-36 8 -28 -2 -29 -4 -27 -53z"/>
<path d="M5632 1998 c-17 -17 -15 -63 2 -78 19 -15 58 -9 64 10 4 13 3 13 -11
2 -23 -19 -57 -6 -57 22 0 13 7 29 15 36 18 15 45 6 45 -15 0 -8 5 -15 10 -15
15 0 12 16 -6 34 -18 19 -45 21 -62 4z"/>
<path d="M5730 1958 c0 -26 5 -48 10 -48 6 0 10 18 10 40 0 71 55 64 63 -8 l4
-37 1 41 c2 49 -11 63 -56 62 -32 -1 -32 -2 -32 -50z"/>
<path d="M5856 1992 c-34 -38 -4 -83 52 -79 31 2 32 4 32 47 0 44 -1 45 -34
47 -22 2 -39 -3 -50 -15z m58 -8 c19 -19 20 -25 3 -48 -18 -25 -57 -13 -57 18
0 21 17 46 31 46 4 0 15 -7 23 -16z"/>
<path d="M3582 1588 c-16 -16 -15 -79 1 -102 32 -44 85 14 69 76 -6 25 -14 34
-33 36 -13 2 -30 -3 -37 -10z m56 -44 c4 -48 -18 -75 -43 -54 -18 15 -20 71
-3 88 23 23 43 9 46 -34z"/>
<path d="M3758 1586 c-16 -8 -24 -22 -26 -45 -6 -59 49 -92 94 -55 19 15 19
16 -1 9 -45 -16 -53 -16 -69 0 -19 19 -21 56 -4 73 15 15 54 16 63 2 3 -5 11
-10 17 -10 16 0 -9 27 -31 33 -11 2 -30 -1 -43 -7z"/>
<path d="M4588 1580 c-2 -7 -1 -33 2 -58 4 -37 9 -47 25 -50 18 -2 18 -2 3 8
-12 7 -18 23 -18 45 0 26 4 35 18 36 13 0 14 2 2 6 -8 3 -18 10 -21 16 -4 5
-8 4 -11 -3z"/>
<path d="M3882 1558 c-7 -7 -12 -24 -12 -38 0 -31 17 -50 45 -50 29 0 45 19
45 52 0 40 -51 63 -78 36z m56 -10 c17 -17 15 -43 -4 -59 -31 -26 -70 25 -44
56 15 18 32 19 48 3z"/>
<path d="M3992 1515 c1 -49 2 -49 5 -8 7 71 58 67 66 -5 l4 -37 1 36 c4 74 57
74 65 1 4 -32 4 -31 3 7 -1 52 -24 74 -56 54 -12 -8 -21 -9 -25 -3 -4 6 -20 9
-36 8 -28 -2 -29 -4 -27 -53z"/>
<path d="M4171 1515 l1 -50 8 38 c8 45 23 62 44 54 11 -4 16 -19 16 -47 0 -53
18 -52 22 3 2 34 7 42 23 42 16 0 21 -8 23 -42 2 -24 7 -43 13 -43 12 0 12 56
-1 81 -11 20 -45 26 -55 9 -5 -8 -11 -8 -19 -1 -7 6 -27 9 -44 8 -32 -2 -32
-3 -31 -52z"/>
<path d="M4366 1554 c-19 -18 -20 -38 -6 -65 13 -23 52 -25 70 -4 15 18 7 19
-19 3 -15 -9 -23 -9 -34 0 -17 14 -11 61 9 69 17 6 46 -15 38 -28 -3 -5 0 -9
5 -9 15 0 14 23 -1 38 -17 17 -44 15 -62 -4z"/>
<path d="M4472 1515 c1 -42 2 -44 5 -13 8 72 59 76 66 5 l4 -42 1 48 c2 49 2
49 -50 51 -27 2 -28 0 -26 -49z"/>
<path d="M4657 1563 c-16 -15 -6 -43 18 -49 14 -3 25 -12 25 -20 0 -17 -22
-18 -39 -1 -11 10 -13 9 -9 -3 6 -20 35 -25 53 -10 22 19 18 30 -15 41 -16 6
-30 15 -30 19 0 16 21 23 33 11 17 -17 31 -13 17 4 -13 16 -42 20 -53 8z"/>
</g>
</svg>
