<?xml version="1.0" standalone="no"?>
<!DOCTYPE svg PUBLIC "-//W3C//DTD SVG 20010904//EN"
 "http://www.w3.org/TR/2001/REC-SVG-20010904/DTD/svg10.dtd">
<svg version="1.0" xmlns="http://www.w3.org/2000/svg"
 width="1314.000000pt" height="691.000000pt" viewBox="0 0 1314.000000 691.000000"
 preserveAspectRatio="xMidYMid meet">

<g transform="translate(0.000000,691.000000) scale(0.100000,-0.100000)"
fill="#000000" stroke="none">
<path d="M0 6894 c0 -14 3 -15 18 -3 9 7 19 15 21 16 2 2 -5 3 -17 3 -14 0
-22 -6 -22 -16z"/>
<path d="M285 6776 c-9 -14 -15 -37 -13 -53 3 -24 8 -28 37 -31 61 -6 81 4 81
42 0 62 -73 91 -105 42z m95 -26 c0 -14 -7 -20 -24 -20 -13 0 -30 -2 -38 -5
-20 -7 -42 11 -35 29 5 11 19 16 52 16 38 0 45 -3 45 -20z"/>
<path d="M195 6761 c-4 -7 3 -11 18 -11 20 0 23 -4 19 -28 -4 -32 18 -62 46
-62 14 0 12 4 -6 18 -19 14 -23 26 -20 53 3 30 0 34 -24 37 -14 2 -29 -2 -33
-7z"/>
<path d="M820 6755 c0 -9 5 -15 11 -13 6 2 11 8 11 13 0 5 -5 11 -11 13 -6 2
-11 -4 -11 -13z"/>
<path d="M12250 6761 c0 -5 5 -11 11 -13 18 -6 30 -81 15 -98 -20 -24 -6 -74
22 -78 17 -3 25 2 29 17 3 12 13 21 23 21 10 0 20 -9 23 -21 8 -31 52 -22 52
11 0 24 -3 25 -68 28 -79 3 -82 22 -3 22 52 0 52 0 74 45 12 25 22 48 22 50 0
3 -36 5 -80 5 -47 0 -80 4 -80 10 0 6 -9 10 -20 10 -11 0 -20 -4 -20 -9z m170
-36 c0 -2 -5 -16 -12 -30 -9 -21 -18 -25 -54 -25 -29 0 -44 5 -48 16 -15 38
-8 44 54 44 33 0 60 -2 60 -5z m-110 -125 c0 -5 -4 -10 -10 -10 -5 0 -10 5
-10 10 0 6 5 10 10 10 6 0 10 -4 10 -10z m100 0 c0 -5 -4 -10 -10 -10 -5 0
-10 5 -10 10 0 6 5 10 10 10 6 0 10 -4 10 -10z"/>
<path d="M410 6731 c0 -34 -9 -41 -65 -57 l-40 -12 45 1 c25 0 53 7 63 15 18
16 23 67 7 77 -6 4 -10 -6 -10 -24z"/>
<path d="M623 6743 c-3 -10 -14 -39 -24 -65 -16 -42 -17 -48 -4 -48 9 0 18 7
21 15 4 8 17 15 30 15 15 0 24 -6 24 -15 0 -8 7 -15 15 -15 19 0 18 12 -4 75
-18 52 -46 71 -58 38z m37 -55 c0 -5 -7 -8 -15 -8 -15 0 -20 21 -8 33 7 7 23
-11 23 -25z"/>
<path d="M1217 6736 c-16 -17 -16 -30 0 -88 5 -19 43 -25 43 -8 0 6 -4 10 -10
10 -15 0 -12 47 3 53 8 4 9 8 1 14 -6 4 -13 14 -15 22 -4 11 -8 10 -22 -3z"/>
<path d="M7527 6732 c-10 -10 -17 -33 -17 -50 0 -39 37 -67 78 -59 19 4 34 -1
49 -16 30 -27 43 -14 16 16 -15 16 -19 31 -16 58 4 30 1 40 -18 53 -31 21 -72
20 -92 -2z m71 -8 c33 -23 26 -65 -12 -79 -24 -8 -31 -6 -47 13 -19 24 -16 49
9 70 20 15 23 15 50 -4z"/>
<path d="M724 6698 c14 -20 14 -24 1 -45 -12 -18 -13 -23 -2 -23 7 0 19 6 26
13 11 10 14 10 18 0 5 -14 33 -18 33 -5 0 4 -6 14 -12 20 -10 10 -10 17 0 33
18 28 7 37 -17 15 -16 -15 -19 -15 -24 -1 -4 8 -14 15 -22 15 -15 0 -15 -2 -1
-22z"/>
<path d="M820 6675 c0 -25 5 -45 10 -45 6 0 10 20 10 45 0 25 -4 45 -10 45 -5
0 -10 -20 -10 -45z"/>
<path d="M870 6674 c0 -32 4 -44 15 -44 11 0 15 11 15 36 0 45 24 42 28 -4 2
-18 7 -32 12 -32 5 0 10 14 12 32 4 46 28 49 28 4 0 -26 4 -36 16 -36 12 0 14
9 12 43 l-3 42 -67 1 -68 2 0 -44z"/>
<path d="M1040 6710 c0 -5 10 -10 23 -10 20 -1 20 -2 -6 -16 -40 -22 -32 -48
16 -51 36 -2 37 -1 37 30 0 18 -5 38 -12 45 -15 15 -58 16 -58 2z m40 -50 c0
-5 -7 -10 -16 -10 -8 0 -12 5 -9 10 3 6 10 10 16 10 5 0 9 -4 9 -10z"/>
<path d="M1130 6674 c0 -32 4 -44 15 -44 10 0 15 10 15 30 0 18 6 33 15 36 25
10 17 21 -15 22 -29 1 -30 -1 -30 -44z"/>
<path d="M12590 6715 c0 -2 -9 -27 -20 -55 -11 -27 -15 -50 -10 -50 6 0 10 7
10 15 0 10 10 15 30 15 20 0 30 -5 30 -15 0 -8 4 -15 10 -15 5 0 1 23 -10 50
-11 28 -20 53 -20 55 0 3 -4 5 -10 5 -5 0 -10 -2 -10 -5z m30 -57 c0 -4 -9 -8
-21 -8 -15 0 -19 4 -15 16 3 9 6 21 6 27 1 13 30 -22 30 -35z"/>
<path d="M12660 6650 c0 -22 5 -40 10 -40 6 0 10 18 10 40 0 22 -4 40 -10 40
-5 0 -10 -18 -10 -40z"/>
<path d="M12702 6678 c9 -7 19 -26 21 -43 3 -21 4 -18 3 10 -1 31 -5 41 -21
43 -18 4 -19 3 -3 -10z"/>
<path d="M12760 6675 c-6 -7 -10 -24 -8 -37 2 -18 9 -23 31 -23 20 1 27 -4 25
-15 -2 -9 -14 -15 -30 -15 -15 1 -24 -3 -22 -7 8 -12 38 -10 52 4 7 7 12 33
12 58 0 41 -2 46 -24 48 -13 1 -29 -5 -36 -13z m45 -25 c0 -16 -6 -26 -18 -28
-19 -4 -32 20 -23 44 9 25 41 13 41 -16z"/>
<path d="M12848 6665 c-13 -28 3 -56 31 -54 14 1 14 2 -1 6 -35 9 -32 63 4 63
17 0 19 -6 16 -47 -3 -42 -6 -48 -25 -47 -13 0 -23 -3 -23 -8 0 -4 11 -8 25
-8 30 0 45 26 45 79 0 39 -2 41 -30 41 -23 0 -33 -6 -42 -25z"/>
<path d="M12945 6681 c-3 -7 0 -8 9 -5 8 3 21 2 28 -2 9 -6 5 -10 -12 -14 -16
-4 -26 -14 -28 -28 -3 -19 1 -22 28 -22 30 0 31 1 28 38 -2 29 -8 38 -25 40
-11 2 -24 -2 -28 -7z m45 -41 c0 -12 -28 -25 -36 -17 -9 9 6 27 22 27 8 0 14
-5 14 -10z"/>
<path d="M180 6581 c-14 -27 -9 -34 18 -29 19 3 19 5 8 27 l-13 24 -13 -22z"/>
<path d="M300 6571 c0 -25 6 -27 13 -6 4 8 2 17 -3 20 -6 4 -10 -3 -10 -14z"/>
<path d="M341 6577 c-8 -10 -7 -14 4 -14 8 0 15 6 15 14 0 7 -2 13 -4 13 -2 0
-9 -6 -15 -13z"/>
<path d="M233 6565 c0 -8 6 -15 12 -15 6 0 12 7 12 15 0 8 -6 15 -12 15 -6 0
-12 -7 -12 -15z"/>
<path d="M281 6564 c0 -11 3 -14 6 -6 3 7 2 16 -1 19 -3 4 -6 -2 -5 -13z"/>
<path d="M401 6564 c0 -11 3 -14 6 -6 3 7 2 16 -1 19 -3 4 -6 -2 -5 -13z"/>
<path d="M1701 5849 c-14 -5 -31 -14 -37 -20 -7 -6 -41 -11 -76 -12 -130 -4
-189 -64 -213 -219 -5 -32 -14 -43 -60 -73 l-55 -35 -32 20 c-73 44 -147 7
-148 -73 0 -30 -7 -44 -36 -69 -51 -45 -67 -83 -69 -163 -1 -44 -8 -82 -18
-102 -31 -59 -67 -216 -73 -318 -7 -109 10 -232 45 -341 20 -61 20 -61 1 -100
-11 -21 -20 -52 -20 -69 0 -16 -4 -36 -9 -44 -7 -11 -13 -7 -24 20 -20 48 -43
64 -93 63 -62 -1 -101 -21 -113 -56 -15 -44 -14 -119 4 -161 35 -84 166 -149
310 -153 44 -1 116 -6 160 -9 49 -5 95 -3 119 3 36 10 45 8 140 -38 124 -61
230 -89 362 -97 160 -9 330 25 467 94 36 18 52 21 67 13 27 -14 33 -13 75 16
37 24 38 25 51 6 36 -52 117 -25 149 50 11 24 19 44 20 45 1 2 30 -13 66 -32
72 -39 90 -42 123 -20 36 24 51 68 36 104 -9 22 -9 35 -1 50 13 24 5 65 -15
82 -12 9 -10 16 11 40 34 41 40 88 26 209 -13 111 -26 144 -68 163 -23 10 -25
15 -20 62 7 68 -9 215 -32 300 -66 239 -231 448 -451 572 -74 41 -189 82 -275
97 l-70 13 3 46 c2 30 -2 54 -13 70 -18 27 -62 50 -91 46 -11 -1 -36 5 -56 15
-21 9 -39 16 -40 15 -2 0 -14 -5 -27 -10z m-86 -97 c6 -4 21 -29 35 -56 34
-67 69 -91 130 -90 47 2 48 1 73 -45 31 -57 71 -186 62 -201 -3 -5 -15 -10
-27 -10 -19 0 -19 1 3 20 l24 21 -23 -3 c-18 -2 -30 7 -51 37 -36 54 -69 69
-120 55 -49 -13 -62 -29 -67 -82 -4 -38 -3 -40 6 -18 20 44 51 70 87 70 43 0
69 -27 84 -86 12 -48 17 -50 79 -33 17 5 28 -56 29 -167 2 -117 -28 -176 -122
-247 -29 -22 -54 -41 -57 -44 -2 -2 18 5 45 16 40 17 45 17 25 3 -13 -9 -62
-48 -108 -86 -58 -47 -81 -62 -73 -45 9 17 2 13 -24 -14 -31 -33 -36 -35 -30
-15 6 22 5 22 -9 4 -15 -18 -16 -18 -25 8 -13 34 -19 33 -14 -1 3 -20 -6 -9
-30 35 -20 35 -40 68 -45 75 -7 8 -7 59 1 154 11 142 11 142 36 145 39 5 35
40 -6 52 -25 7 -33 15 -33 32 0 38 -10 51 -33 47 -12 -2 -31 3 -42 11 -19 16
-19 16 5 8 34 -11 60 -4 53 14 -7 20 4 60 23 78 23 24 71 20 99 -9 30 -29 33
-14 5 25 -26 36 -72 47 -105 26 -24 -16 -24 -15 -31 19 -3 18 -4 74 -3 124 3
71 8 95 25 118 35 47 118 78 149 55z m-411 -314 c19 -27 22 -98 4 -98 -9 -1
-8 -5 3 -13 18 -14 39 -50 39 -68 0 -8 -8 -5 -20 6 -11 10 -22 16 -25 13 -3
-3 1 -11 10 -18 17 -14 20 -56 4 -65 -6 -4 -19 2 -30 14 -27 29 -35 26 -14 -5
15 -23 15 -28 3 -41 -20 -20 -48 -6 -55 28 -6 32 -20 38 -30 13 -10 -27 16
-90 57 -137 29 -32 69 -60 133 -92 51 -26 106 -60 124 -77 37 -36 88 -129 97
-178 7 -34 6 -34 -14 10 -31 66 -86 144 -121 174 -17 15 -65 37 -107 49 -61
18 -86 32 -130 72 -66 60 -91 111 -92 185 0 67 26 116 67 126 39 10 44 22 37
77 -6 45 -5 47 19 47 15 0 32 -9 41 -22z m227 -72 c-6 -14 -16 -26 -23 -25
-10 0 -10 2 0 6 6 2 12 13 12 22 0 10 3 21 7 24 12 13 14 0 4 -27z m823 -1
c-2 -25 -26 -88 -37 -96 -5 -4 8 -15 30 -25 105 -52 62 -224 -80 -316 -70 -46
-96 -55 -212 -73 -98 -16 -135 -30 -185 -73 -97 -82 -174 -142 -182 -142 -21
0 2 28 76 92 94 82 201 137 322 167 49 12 107 32 129 44 50 28 127 122 123
150 -5 31 -27 32 -38 3 -12 -33 -35 -43 -56 -25 -14 12 -13 16 12 36 21 16 24
23 13 23 -9 0 -22 -7 -29 -15 -10 -12 -16 -13 -26 -4 -19 16 -17 29 8 56 12
13 16 23 10 23 -6 0 -14 -4 -17 -10 -11 -17 -25 -11 -25 10 0 12 11 31 24 43
12 12 26 39 30 59 10 53 51 100 85 96 19 -2 26 -8 25 -23z m-824 -229 l0 -75
-47 20 c-50 21 -78 41 -103 74 -11 14 -5 12 20 -7 29 -22 102 -58 116 -58 2 0
4 27 4 60 0 33 2 60 5 60 3 0 5 -34 5 -74z m-244 -204 c77 -40 137 -132 138
-213 1 -51 -10 -69 -79 -122 l-40 -31 47 51 c52 56 63 86 54 137 -9 47 -78
140 -119 159 -41 20 -123 91 -139 121 -6 11 14 -2 44 -30 30 -29 72 -61 94
-72z m216 -147 c6 -16 26 -46 44 -67 18 -20 37 -46 44 -57 10 -19 8 -21 -15
-21 -66 0 -112 -79 -82 -139 19 -38 26 -243 9 -264 -21 -25 -24 -66 -8 -98 28
-56 22 -73 -38 -102 -115 -57 -194 -55 -270 6 -22 17 -36 24 -32 16 4 -8 -4 0
-19 16 -26 29 -26 29 -19 5 7 -25 7 -25 -15 -6 -11 11 -22 17 -24 15 -2 -2 -8
-17 -15 -32 -14 -32 -21 -32 -112 10 -30 14 -67 25 -81 24 -42 -3 -63 70 -39
133 8 21 16 26 44 26 36 0 39 -3 77 -53 12 -15 38 -36 59 -47 45 -23 50 -17
50 61 0 64 20 110 60 139 90 64 324 270 340 299 13 24 13 85 1 129 -6 20 -6
30 0 27 13 -9 11 1 -6 38 l-16 32 25 -30 c14 -16 31 -43 38 -60z m604 -55
c-19 -28 -38 -59 -41 -70 -4 -11 -13 -20 -21 -20 -16 0 -4 22 59 103 41 53 43
46 3 -13z m-196 -40 c0 -5 -2 -10 -4 -10 -3 0 -8 5 -11 10 -3 6 -1 10 4 10 6
0 11 -4 11 -10z m-293 -32 c-3 -8 -6 -5 -6 6 -1 11 2 17 5 13 3 -3 4 -12 1
-19z m197 -7 c3 -4 -5 -13 -18 -19 -19 -8 -28 -7 -43 4 -10 9 -13 13 -8 11 6
-2 19 -1 30 4 27 10 33 11 39 0z m-53 -90 c24 -24 29 -38 29 -76 0 -80 -36
-125 -99 -125 -29 0 -30 -2 -33 -47 -3 -46 -4 -48 -33 -48 l-30 0 -3 133 c-2
106 -5 132 -17 132 -19 0 -27 16 -20 40 6 18 15 20 91 20 81 0 87 -2 115 -29z
m175 7 c5 -16 1 -27 -15 -39 -19 -15 -21 -27 -21 -112 0 -87 2 -95 21 -100 15
-4 20 -12 17 -29 -3 -21 -8 -23 -68 -23 -63 0 -65 1 -68 28 -2 19 1 27 12 27
23 0 24 195 1 204 -15 5 -21 47 -8 59 3 4 32 7 64 7 51 0 59 -3 65 -22z m188
-3 c34 -32 37 -98 5 -116 -28 -14 -44 2 -44 44 0 27 -4 32 -24 32 -31 0 -50
-28 -35 -52 6 -10 33 -30 59 -45 56 -30 75 -52 75 -85 0 -57 -67 -101 -134
-89 -44 8 -68 37 -70 83 -1 32 3 38 21 41 17 3 24 -3 29 -25 4 -15 12 -31 18
-35 12 -8 56 -11 56 -4 0 2 3 11 6 19 4 11 -9 24 -40 42 -98 57 -124 129 -67
186 39 39 105 41 145 4z m205 6 c5 -7 19 -64 31 -125 12 -61 29 -119 37 -128
25 -28 13 -53 -27 -53 -30 0 -37 5 -50 32 -11 25 -21 33 -42 33 -23 0 -29 -6
-36 -32 -7 -28 -13 -34 -40 -36 -40 -4 -40 2 -7 144 14 58 25 108 25 110 0 2
-9 4 -19 4 -22 0 -34 25 -25 52 5 18 13 20 76 16 43 -2 72 -9 77 -17z m167 11
c6 -4 29 -43 50 -87 l39 -80 5 85 c5 80 6 85 29 88 13 2 28 -1 33 -6 7 -7 8
-66 3 -166 -7 -152 -8 -156 -30 -156 -28 0 -44 19 -89 105 l-37 70 6 -72 c6
-88 1 -103 -36 -103 l-29 0 0 129 c0 127 -1 130 -22 133 -26 3 -35 32 -18 53
13 16 77 20 96 7z m364 -12 c11 -11 20 -28 20 -37 0 -10 3 -28 6 -40 4 -15 0
-24 -16 -33 -27 -14 -47 0 -52 37 -9 77 -58 1 -58 -89 0 -80 43 -128 70 -79
15 28 13 38 -10 44 -11 3 -20 14 -20 25 0 15 9 21 41 26 22 4 44 4 50 1 5 -4
9 -30 9 -60 0 -75 -30 -110 -94 -110 -38 0 -51 5 -77 32 -29 28 -32 38 -37
107 -5 86 14 155 51 181 31 22 93 19 117 -5z m-1136 -285 c-4 -8 -8 -15 -10
-15 -2 0 -4 7 -4 15 0 8 4 15 10 15 5 0 7 -7 4 -15z m-627 -281 c-3 -3 -12 -4
-19 -1 -8 3 -5 6 6 6 11 1 17 -2 13 -5z"/>
<path d="M1710 5390 c-6 -12 -10 -33 -8 -48 3 -24 6 -27 38 -24 45 5 57 12 36
24 -21 12 -21 26 1 30 15 3 15 4 -1 21 -23 23 -53 22 -66 -3z"/>
<path d="M1497 5366 c-4 -9 -2 -18 4 -22 5 -3 7 -14 4 -25 -6 -17 -2 -18 27
-12 44 8 45 10 27 41 -17 30 -53 41 -62 18z"/>
<path d="M1710 5220 c0 -26 -25 -36 -45 -20 -13 10 -19 10 -34 -4 -17 -15 -20
-15 -34 -2 -8 9 -17 21 -20 28 -2 7 -8 10 -12 6 -4 -4 0 -19 9 -32 15 -23 21
-25 75 -22 33 2 64 7 70 10 14 9 15 56 1 56 -5 0 -10 -9 -10 -20z"/>
<path d="M1789 5194 c-11 -14 -10 -18 6 -30 24 -18 36 -18 60 0 26 19 13 46
-23 46 -16 0 -36 -7 -43 -16z"/>
<path d="M1560 4465 c0 -71 15 -85 44 -43 31 44 16 108 -26 108 -15 0 -18 -9
-18 -65z"/>
<path d="M2178 4465 c-3 -6 -9 -27 -13 -48 -7 -33 -5 -37 14 -37 22 0 24 10
12 65 -3 17 -9 25 -13 20z"/>
<path d="M8063 5582 c-9 -5 -12 -33 -11 -83 1 -52 -5 -94 -20 -143 -20 -63
-22 -88 -22 -333 0 -163 4 -272 10 -284 10 -17 22 -19 135 -19 101 0 127 3
140 16 15 15 16 48 12 303 -3 261 -5 292 -25 349 -17 49 -20 75 -15 123 5 47
3 63 -8 70 -17 11 -179 12 -196 1z m170 -81 c-4 -37 1 -68 18 -123 23 -70 24
-86 24 -348 l0 -275 -115 0 -115 0 -3 258 c-2 252 -2 260 24 354 18 69 24 110
20 140 l-6 43 80 0 79 0 -6 -49z"/>
<path d="M8211 5374 c-1 -6 6 -33 15 -60 8 -27 19 -110 24 -184 l8 -135 -3
140 c-2 112 -6 151 -23 195 -11 30 -21 50 -21 44z"/>
<path d="M11325 5558 c-141 -51 -507 -408 -587 -573 -12 -25 -35 -49 -58 -63
-21 -12 -41 -30 -45 -41 -9 -28 -57 -46 -85 -31 -39 21 -142 8 -190 -24 -69
-45 -101 -152 -66 -216 13 -22 12 -27 -10 -53 -17 -20 -24 -41 -24 -70 0 -49
22 -81 68 -100 20 -8 39 -27 51 -50 18 -36 18 -37 0 -42 -22 -7 -34 -44 -25
-78 11 -44 98 -67 165 -43 39 13 46 13 67 -1 36 -23 82 -9 101 33 21 43 47 44
62 4 13 -38 38 -47 123 -45 72 1 98 15 98 49 0 20 1 19 25 -7 29 -30 60 -34
93 -11 20 13 22 13 22 0 0 -25 38 -38 89 -31 68 9 122 43 150 95 l25 44 21
-65 c17 -50 27 -66 47 -73 34 -12 79 1 85 24 6 24 19 26 27 5 7 -19 91 -21
103 -3 4 7 16 33 25 58 l16 45 1 -50 c1 -27 6 -57 11 -65 13 -20 85 -19 106 2
16 15 19 15 42 0 37 -24 119 -21 164 5 34 20 36 20 41 3 6 -25 62 -36 90 -18
13 9 39 13 62 11 22 -2 46 0 54 5 15 11 30 76 31 134 0 33 4 39 34 52 50 21
76 54 76 97 0 28 -20 76 -76 181 -89 168 -122 208 -173 208 -44 0 -70 -20
-110 -84 -28 -44 -31 -47 -31 -24 0 15 -11 40 -25 56 -14 17 -25 38 -25 48 0
26 -11 41 -49 67 -22 15 -42 45 -65 97 -29 67 -129 239 -244 419 -35 56 -49
68 -109 97 -72 35 -123 42 -178 22z m154 -22 c13 -7 20 -16 15 -19 -5 -3 -20
3 -33 14 -27 22 -17 25 18 5z m-167 -27 c-23 -17 -47 -29 -54 -27 -7 3 8 16
32 31 61 36 74 34 22 -4z m148 1 c-1 -3 -24 -23 -52 -45 -80 -63 -266 -251
-347 -352 -41 -51 -76 -91 -78 -89 -2 2 3 22 12 44 11 27 26 44 46 52 16 7 29
18 29 25 0 8 11 27 25 43 14 17 25 33 25 36 0 9 67 76 76 76 3 0 34 28 68 63
33 35 69 66 79 70 9 3 22 18 29 32 6 14 17 25 24 25 6 0 14 6 17 13 4 12 47
19 47 7z m193 -162 c164 -264 227 -390 227 -457 0 -28 -3 -31 -30 -31 -16 0
-47 -7 -69 -16 -36 -14 -42 -14 -70 0 -36 19 -107 20 -140 2 -20 -11 -30 -11
-63 2 -34 14 -61 14 -210 4 -116 -9 -175 -9 -182 -2 -7 7 10 10 52 10 35 0 62
4 62 10 0 6 -47 10 -120 10 -66 0 -120 -4 -120 -9 0 -5 5 -11 12 -13 20 -7
-33 -67 -59 -67 -30 -1 -40 37 -19 77 29 56 163 227 264 337 170 186 301 295
353 295 11 0 50 -54 112 -152z m-501 40 c-10 -39 -43 -76 -74 -82 -41 -8 -84
-55 -98 -107 -13 -50 -54 -99 -83 -99 -11 0 -37 -17 -58 -39 -32 -31 -39 -46
-39 -77 0 -21 -7 -58 -16 -81 -13 -35 -20 -41 -30 -32 -35 29 2 113 105 242
45 57 283 297 294 297 3 0 3 -10 -1 -22z m-214 -407 c11 -6 7 -19 -17 -56 -17
-27 -31 -55 -31 -62 0 -16 -5 -16 -31 -3 -15 9 -17 15 -9 30 5 10 10 30 10 44
0 19 5 26 20 26 11 0 23 7 26 15 7 17 13 18 32 6z m-105 -152 c32 -15 50 -54
37 -79 -5 -10 -37 -43 -71 -73 l-61 -54 63 -51 c34 -28 66 -49 70 -46 4 2 37
61 74 132 68 129 98 172 121 172 7 0 24 -15 37 -32 24 -32 157 -276 157 -287
0 -3 -15 -6 -32 -6 -18 0 -48 -3 -65 -7 -29 -7 -33 -5 -39 17 -6 23 -11 25
-60 25 -30 0 -54 -4 -54 -9 0 -5 -5 -22 -10 -37 -10 -25 -12 -26 -29 -10 -28
26 -89 21 -113 -9 -31 -39 -60 -32 -112 27 -38 44 -46 49 -46 31 0 -13 -16
-39 -36 -60 -29 -29 -39 -35 -52 -26 -14 8 -17 33 -20 151 -3 141 -3 141 -22
122 -19 -19 -22 -19 -57 -5 -40 17 -83 13 -83 -8 0 -7 21 -18 46 -25 66 -18
104 -59 104 -114 0 -58 -10 -72 -48 -63 -38 8 -101 -9 -130 -35 -11 -11 -27
-20 -34 -20 -25 0 -58 31 -58 55 0 30 28 58 49 49 9 -3 34 -8 57 -11 32 -4 42
-2 47 11 5 13 -6 22 -49 41 -43 19 -58 32 -70 60 -30 73 21 156 105 170 48 8
107 -9 121 -35 17 -31 11 -34 -11 -6 -11 14 -30 26 -42 25 l-22 0 21 -9 c12
-5 29 -18 37 -30 18 -26 37 -18 37 15 0 32 64 54 100 35 20 -11 22 -18 18 -61
-3 -26 -1 -46 3 -43 4 2 22 29 39 58 17 30 36 57 43 59 7 3 13 6 14 6 1 1 13
-4 26 -10z m407 -14 c-14 -16 -75 -21 -85 -6 -5 9 18 14 79 19 15 2 16 -1 6
-13z m235 5 c49 -11 75 -41 75 -87 0 -41 -13 -68 -53 -110 -17 -18 -29 -34
-26 -36 2 -2 25 -18 52 -36 l47 -32 0 139 c0 117 3 142 16 153 16 14 87 19 99
8 11 -12 -7 -299 -19 -298 -35 4 -46 -4 -57 -41 -10 -32 -15 -38 -26 -29 -7 6
-13 18 -13 25 0 11 -8 11 -41 -3 -41 -16 -42 -16 -59 7 -9 13 -30 28 -46 35
-26 10 -32 9 -57 -16 -27 -27 -28 -28 -57 -11 l-30 17 0 146 0 147 28 10 c54
21 110 25 167 12z m471 -21 c34 -32 31 -82 -6 -90 -8 -2 -30 2 -48 10 -26 11
-39 11 -58 2 -27 -12 -24 -31 4 -31 31 -1 100 -38 113 -62 7 -12 15 -38 18
-57 6 -33 8 -30 70 89 94 177 109 193 150 149 10 -11 54 -86 96 -166 68 -127
76 -148 66 -169 -12 -26 -31 -32 -31 -10 0 25 -30 46 -66 46 -22 0 -37 6 -40
15 -4 11 -21 15 -56 15 -41 0 -51 -3 -55 -20 -3 -11 -10 -20 -16 -20 -6 0 -18
-7 -27 -15 -15 -14 -22 -13 -63 5 -49 22 -82 20 -125 -7 -21 -13 -25 -13 -37
3 -9 13 -27 18 -68 19 -31 0 -59 4 -63 8 -15 14 13 42 37 39 69 -10 104 -7
107 9 2 11 -11 21 -42 33 -75 29 -102 82 -77 149 30 79 157 112 217 56z m-716
-99 c0 -5 -2 -10 -4 -10 -3 0 -8 5 -11 10 -3 6 -1 10 4 10 6 0 11 -4 11 -10z
m-352 -75 c-20 -40 -24 -44 -37 -30 -14 13 -12 18 19 45 19 16 36 29 37 30 2
0 -7 -20 -19 -45z m823 -134 l24 -19 -43 -131 c-43 -129 -44 -131 -73 -131
-26 0 -33 6 -46 40 -9 22 -19 40 -22 40 -4 0 -13 -19 -21 -42 -14 -40 -18 -43
-50 -43 l-35 0 -41 125 c-38 115 -40 126 -25 142 9 10 27 19 41 20 22 3 27 -3
45 -60 l20 -64 22 46 c13 25 29 46 37 46 8 0 28 -16 44 -36 l29 -35 17 60 c19
67 35 76 77 42z m587 -6 c2 -1 -3 -60 -10 -130 -11 -116 -14 -128 -34 -137
-38 -18 -57 -3 -51 37 5 30 3 35 -13 35 -15 0 -19 -9 -22 -42 -3 -42 -4 -43
-38 -43 l-35 0 -6 60 c-4 33 -7 95 -8 137 -1 74 0 78 23 84 53 13 61 4 58 -64
-3 -61 -3 -62 22 -62 28 0 30 6 26 82 -2 42 20 61 60 52 14 -3 26 -7 28 -9z
m-1743 -24 c11 -17 21 -28 24 -26 2 3 -4 14 -14 25 -10 11 -13 20 -7 20 17 0
34 -38 27 -61 -6 -18 -12 -20 -61 -13 -58 7 -77 -9 -23 -20 38 -7 89 -57 89
-88 1 -15 18 10 50 71 26 51 55 100 63 108 29 29 53 5 113 -110 l59 -112 7 99
c9 125 10 128 50 124 27 -2 37 -12 65 -58 l33 -55 0 56 c0 43 4 58 16 63 22 8
62 7 68 -2 2 -4 -2 -61 -10 -127 -10 -87 -18 -123 -30 -132 -24 -17 -40 -7
-76 50 l-33 52 -5 -60 -5 -60 -37 -3 c-30 -3 -38 0 -38 13 0 15 -1 15 -16 1
-16 -17 -51 -21 -71 -8 -6 4 -15 20 -18 35 -6 23 -12 27 -44 27 -32 0 -39 -4
-52 -32 -18 -40 -70 -51 -90 -20 -12 19 -13 19 -43 1 -59 -36 -166 -17 -166
30 0 30 20 40 71 34 61 -7 66 10 9 33 -44 18 -60 39 -60 79 0 36 15 62 48 79
45 25 84 20 107 -13z m749 15 c41 -17 61 -67 53 -133 -9 -83 -66 -134 -155
-141 l-59 -4 -6 38 c-12 70 -8 221 6 232 29 24 113 28 161 8z m526 -34 l5 -44
18 31 c20 35 64 61 100 61 38 0 91 -41 95 -73 6 -49 -39 -77 -68 -42 -18 22
-37 18 -56 -10 -14 -21 -15 -31 -6 -50 14 -30 31 -31 65 -5 32 25 49 25 72 0
26 -29 13 -66 -35 -90 -74 -38 -159 -18 -185 43 l-14 32 -1 -36 c0 -43 -18
-62 -57 -57 l-28 3 4 135 c2 85 8 138 15 143 6 4 25 6 41 5 27 -3 30 -7 35
-46z m-1217 -88 c-7 -18 -19 -18 -26 0 -7 18 1 26 18 19 8 -2 11 -11 8 -19z
m247 4 c0 -16 -3 -19 -11 -11 -6 6 -8 16 -5 22 11 17 16 13 16 -11z m1117 -25
c2 -6 -5 -17 -16 -23 -19 -10 -21 -8 -21 15 0 19 5 26 17 23 9 -2 18 -8 20
-15z"/>
<path d="M11235 5130 c3 -5 8 -10 11 -10 2 0 4 5 4 10 0 6 -5 10 -11 10 -5 0
-7 -4 -4 -10z"/>
<path d="M11142 5109 c2 -7 10 -15 17 -17 8 -3 12 1 9 9 -2 7 -10 15 -17 17
-8 3 -12 -1 -9 -9z"/>
<path d="M11290 5070 c0 -5 5 -10 11 -10 5 0 7 5 4 10 -3 6 -8 10 -11 10 -2 0
-4 -4 -4 -10z"/>
<path d="M11140 5052 c0 -12 19 -26 26 -19 2 2 -2 10 -11 17 -9 8 -15 8 -15 2z"/>
<path d="M11225 5040 c3 -5 11 -10 16 -10 6 0 7 5 4 10 -3 6 -11 10 -16 10 -6
0 -7 -4 -4 -10z"/>
<path d="M11375 5040 c3 -5 11 -10 16 -10 6 0 7 5 4 10 -3 6 -11 10 -16 10 -6
0 -7 -4 -4 -10z"/>
<path d="M11050 4990 c0 -5 7 -10 16 -10 8 0 12 5 9 10 -3 6 -10 10 -16 10 -5
0 -9 -4 -9 -10z"/>
<path d="M11270 4990 c0 -5 5 -10 11 -10 5 0 7 5 4 10 -3 6 -8 10 -11 10 -2 0
-4 -4 -4 -10z"/>
<path d="M11155 4980 c3 -5 11 -10 16 -10 6 0 7 5 4 10 -3 6 -11 10 -16 10 -6
0 -7 -4 -4 -10z"/>
<path d="M11420 4971 c0 -5 5 -13 10 -16 6 -3 10 -2 10 4 0 5 -4 13 -10 16 -5
3 -10 2 -10 -4z"/>
<path d="M11040 4940 c0 -5 5 -10 10 -10 6 0 10 5 10 10 0 6 -4 10 -10 10 -5
0 -10 -4 -10 -10z"/>
<path d="M11170 4930 c0 -5 5 -10 11 -10 5 0 7 5 4 10 -3 6 -8 10 -11 10 -2 0
-4 -4 -4 -10z"/>
<path d="M11300 4910 c0 -5 5 -10 11 -10 5 0 7 5 4 10 -3 6 -8 10 -11 10 -2 0
-4 -4 -4 -10z"/>
<path d="M11445 4900 c3 -5 11 -10 16 -10 6 0 7 5 4 10 -3 6 -11 10 -16 10 -6
0 -7 -4 -4 -10z"/>
<path d="M10831 4804 c10 -10 19 -28 22 -39 4 -15 5 -14 6 7 1 19 -6 31 -21
39 -22 11 -22 11 -7 -7z"/>
<path d="M11052 4673 c-5 -15 -13 -36 -17 -45 -6 -15 -2 -18 22 -18 39 0 43 6
31 43 -16 47 -24 52 -36 20z"/>
<path d="M11475 4799 c11 -6 30 -23 42 -38 15 -17 23 -21 23 -11 0 28 -39 60
-72 60 -7 0 -4 -5 7 -11z"/>
<path d="M11583 4735 c0 -33 2 -45 4 -27 2 18 2 45 0 60 -2 15 -4 0 -4 -33z"/>
<path d="M11398 4723 c-14 -3 -18 -15 -18 -44 0 -21 5 -39 10 -39 14 0 60 46
60 59 0 14 -32 28 -52 24z"/>
<path d="M11895 4803 c11 -2 30 -16 42 -31 16 -19 23 -22 23 -11 0 23 -33 49
-61 48 -20 -1 -21 -2 -4 -6z"/>
<path d="M12147 4669 c-25 -58 -25 -64 3 -61 37 5 42 14 26 58 l-14 39 -15
-36z"/>
<path d="M12211 4454 c0 -11 3 -14 6 -6 3 7 2 16 -1 19 -3 4 -6 -2 -5 -13z"/>
<path d="M10706 4364 c-10 -26 -7 -34 15 -34 15 0 19 4 15 16 -3 9 -6 20 -6
25 0 15 -17 10 -24 -7z"/>
<path d="M10882 4350 c0 -19 2 -27 5 -17 2 9 2 25 0 35 -3 9 -5 1 -5 -18z"/>
<path d="M10580 4231 c0 -9 30 -24 36 -18 2 1 -6 8 -16 15 -11 7 -20 8 -20 3z"/>
<path d="M11298 4452 c9 -10 19 -17 21 -16 6 5 -20 34 -30 34 -5 0 -1 -8 9
-18z"/>
<path d="M11217 4383 c-4 -3 -7 -28 -7 -55 0 -58 21 -65 46 -17 12 25 14 37 5
55 -10 23 -31 31 -44 17z m20 -65 c-3 -7 -5 -2 -5 12 0 14 2 19 5 13 2 -7 2
-19 0 -25z"/>
<path d="M11873 4228 c11 -10 27 -18 36 -17 10 0 7 4 -8 10 -14 5 -30 13 -36
17 -6 4 -2 -1 8 -10z"/>
<path d="M5120 5391 c-110 -32 -212 -83 -240 -119 -23 -29 -26 -79 -6 -108 12
-17 12 -22 0 -39 -20 -28 -17 -78 7 -109 12 -15 20 -28 18 -29 -2 -1 -18 -12
-35 -24 -29 -20 -34 -21 -70 -8 -49 18 -89 19 -117 3 -15 -8 -60 -12 -137 -10
-85 2 -122 -1 -142 -11 -25 -14 -28 -13 -59 19 -77 79 -257 86 -447 18 -89
-32 -166 -97 -183 -154 -24 -81 14 -150 95 -171 45 -11 46 -12 46 -51 0 -57
24 -96 73 -119 42 -19 101 -24 132 -13 8 4 23 20 31 36 13 24 13 36 4 58 -15
37 0 67 40 74 95 19 87 21 93 -21 8 -50 32 -82 73 -99 45 -19 81 -17 131 6 24
10 45 15 48 10 3 -5 -1 -28 -10 -52 -28 -80 -17 -126 36 -154 27 -13 46 -14
137 -5 59 6 141 13 182 16 41 3 89 7 105 9 78 9 429 43 522 51 103 8 119 34
99 160 l-13 85 37 -6 c23 -4 48 -1 66 9 20 10 48 13 90 10 48 -4 69 -1 102 16
37 19 43 19 69 6 46 -24 136 -19 201 12 65 30 180 140 201 191 19 45 5 82 -36
102 -17 8 -42 31 -55 50 -47 70 -137 89 -220 47 -39 -20 -49 -21 -64 -10 -10
7 -37 13 -60 13 -33 0 -43 4 -47 19 -7 29 -66 61 -110 61 -27 0 -39 5 -43 18
-3 9 -10 25 -15 34 -5 10 -9 27 -9 37 0 31 -21 69 -47 87 -52 33 -202 74 -291
79 -74 3 -101 0 -182 -24z m240 -36 c41 -9 103 -29 136 -45 75 -36 88 -64 47
-97 -24 -19 -25 -22 -6 -17 14 4 29 -2 44 -17 l22 -22 -34 -31 c-18 -16 -25
-27 -15 -23 16 6 17 5 6 -9 -22 -26 -85 -53 -177 -76 -100 -25 -298 -30 -370
-9 -49 14 -100 66 -83 86 9 10 16 9 35 -8 16 -15 20 -24 12 -29 -7 -4 -4 -7 8
-8 11 0 75 -6 143 -12 107 -10 136 -9 220 6 53 9 101 21 105 25 5 5 -20 2 -55
-7 -69 -17 -264 -22 -340 -9 -33 6 -57 18 -78 39 -38 37 -34 54 11 51 l34 -3
-31 14 c-17 8 -40 26 -52 41 -26 32 -19 46 31 66 18 7 45 23 60 35 15 13 42
26 60 29 18 4 57 15 87 25 69 23 87 24 180 5z m388 -278 c24 -19 13 -72 -29
-138 l-41 -64 59 56 c64 63 90 79 125 79 53 0 64 -61 23 -123 -30 -44 -71 -67
-120 -67 -27 0 -35 -4 -35 -18 0 -24 19 -42 45 -42 36 0 110 65 123 109 16 50
65 117 105 141 98 60 200 -23 152 -124 -32 -66 -80 -83 -122 -44 -20 19 -25
20 -33 8 -15 -23 -12 -60 5 -66 38 -15 87 8 154 72 38 35 71 64 75 64 15 0 3
-25 -30 -66 -46 -56 -142 -120 -192 -129 -48 -8 -107 14 -117 44 -6 20 -7 20
-44 -9 -50 -41 -103 -55 -138 -38 -39 18 -50 57 -29 99 l16 33 -26 -25 c-34
-32 -77 -106 -69 -119 13 -22 -47 -9 -69 15 -23 24 -23 24 -40 6 -30 -33 -76
-50 -102 -39 -18 8 -28 6 -49 -10 -51 -40 -126 -36 -140 6 -5 19 -9 18 -62
-14 -79 -47 -143 -50 -181 -8 l-22 26 -35 -31 c-46 -40 -80 -49 -105 -26 -24
22 -26 65 -4 106 25 49 10 44 -45 -16 -45 -50 -56 -71 -52 -97 0 -5 -12 -8
-29 -8 -21 0 -35 8 -46 25 l-16 25 -39 -35 c-38 -34 -81 -46 -94 -25 -4 6 -18
2 -37 -11 -16 -12 -49 -24 -73 -27 -38 -4 -45 -1 -60 22 -51 77 30 253 130
286 34 11 83 0 97 -23 5 -8 8 -6 8 6 0 22 62 24 84 1 24 -24 20 -44 -29 -124
-52 -88 -56 -105 -15 -65 32 31 120 184 120 210 0 22 53 19 81 -4 24 -19 24
-19 5 -57 l-18 -39 36 42 c75 86 177 130 184 78 1 -11 -22 -62 -53 -114 -62
-105 -69 -128 -25 -86 17 16 30 36 30 44 0 33 49 118 87 152 50 45 91 56 132
35 52 -27 64 -68 32 -107 l-20 -24 -15 22 c-22 30 -51 19 -87 -31 -40 -55 -38
-100 6 -104 17 -1 47 8 69 20 31 18 42 33 56 73 45 140 154 221 228 169 20
-14 22 -14 22 0 0 36 86 9 96 -29 5 -20 -4 -43 -40 -102 -47 -75 -53 -102 -17
-69 38 35 171 280 171 317 0 9 3 18 6 22 8 8 65 -3 82 -16z m-1504 -141 c40
-17 76 -60 76 -93 0 -76 -100 -142 -217 -143 -27 0 -37 -7 -60 -42 -19 -29
-27 -57 -28 -85 0 -36 -3 -43 -20 -43 -34 0 -68 24 -78 53 -8 24 -2 43 41 130
28 56 56 121 62 145 10 37 14 42 40 42 36 0 70 -31 70 -62 0 -13 -9 -43 -20
-67 -11 -24 -18 -46 -16 -48 10 -10 85 70 91 97 7 31 -8 67 -34 87 -50 36
-140 19 -206 -39 -53 -47 -75 -84 -75 -129 0 -31 -1 -31 -37 -26 -95 16 -78
123 28 177 105 54 306 78 383 46z m1235 -387 c15 -88 15 -89 -14 -89 -16 0
-25 6 -25 15 0 22 -38 18 -50 -5 -8 -15 -20 -19 -53 -18 -24 1 -47 8 -53 16
-12 17 -34 8 -34 -14 0 -10 -13 -14 -50 -14 -27 0 -50 5 -50 10 0 17 -39 11
-60 -10 -11 -11 -27 -20 -35 -20 -18 0 -17 2 47 113 54 93 71 91 88 -10 l13
-78 13 50 c8 28 14 62 14 77 0 23 6 29 40 38 28 8 46 8 60 0 26 -14 26 -61 0
-85 -15 -14 -17 -21 -9 -32 6 -7 14 -13 18 -13 3 0 24 32 46 70 37 64 60 86
76 71 4 -3 12 -36 18 -72z m-419 21 c11 -11 20 -25 20 -30 0 -25 -30 -78 -54
-98 -27 -21 -83 -38 -93 -29 -3 3 3 40 13 82 14 58 23 79 39 85 33 14 54 11
75 -10z m-110 5 c0 -3 -7 -35 -16 -71 -12 -44 -24 -71 -42 -84 -30 -24 -65
-26 -86 -4 -15 14 -16 14 -16 0 0 -10 -9 -16 -25 -16 -14 0 -25 5 -25 10 0 15
-47 12 -53 -4 -5 -13 -57 -29 -57 -17 0 3 21 42 48 86 32 54 54 81 68 83 19 3
22 -4 31 -60 l9 -63 11 40 c6 22 14 52 17 68 5 19 13 27 27 27 22 0 22 -4 3
-103 -5 -24 -3 -28 13 -25 13 2 22 19 31 58 18 78 19 80 42 80 11 0 20 -2 20
-5z m-302 -37 c15 -15 -17 -41 -35 -27 -7 7 -14 6 -19 -2 -4 -7 -2 -15 4 -17
6 -2 21 -11 33 -21 20 -16 21 -19 6 -48 -18 -33 -34 -43 -76 -43 -29 0 -51 16
-51 36 0 17 43 30 48 15 5 -16 32 -14 32 2 0 8 -11 19 -25 25 -30 14 -33 44
-5 72 22 22 69 27 88 8z"/>
<path d="M5031 5136 c2 -2 31 -6 64 -9 39 -4 50 -3 30 2 -31 9 -102 14 -94 7z"/>
<path d="M5048 5093 c7 -3 16 -2 19 1 4 3 -2 6 -13 5 -11 0 -14 -3 -6 -6z"/>
<path d="M6040 4905 c-19 -19 -30 -35 -24 -35 19 0 74 40 74 55 0 23 -13 18
-50 -20z"/>
<path d="M5739 4880 c-19 -16 -29 -29 -22 -30 15 0 70 47 62 54 -3 3 -21 -8
-40 -24z"/>
<path d="M5336 4829 c-36 -42 -63 -105 -52 -117 11 -10 39 12 73 59 65 91 48
138 -21 58z"/>
<path d="M4438 4758 c-47 -51 -81 -128 -56 -128 28 0 108 106 108 143 0 26
-19 21 -52 -15z"/>
<path d="M5270 4544 c0 -22 2 -25 15 -14 8 7 15 19 15 26 0 8 -7 14 -15 14
-10 0 -15 -10 -15 -26z"/>
<path d="M5427 4554 c-4 -4 -7 -14 -7 -23 0 -11 3 -12 11 -4 6 6 10 16 7 23
-2 6 -7 8 -11 4z"/>
<path d="M5136 4521 c-4 -7 -5 -15 -2 -18 9 -9 19 4 14 18 -4 11 -6 11 -12 0z"/>
<path d="M4997 4543 c-3 -4 -8 -28 -12 -53 l-7 -45 26 25 c18 16 26 33 24 49
-3 24 -22 39 -31 24z"/>
<path d="M7576 5086 c-33 -43 -33 -51 -1 -30 24 15 28 14 132 -42 59 -31 127
-68 151 -81 23 -14 42 -23 42 -20 0 5 -287 207 -294 207 -2 0 -15 -15 -30 -34z"/>
<path d="M8585 5029 c-191 -133 -186 -135 36 -14 99 54 100 55 131 39 l31 -16
-29 41 c-16 22 -31 41 -34 41 -3 0 -63 -41 -135 -91z"/>
<path d="M7356 5019 c-3 -17 -6 -43 -6 -58 l1 -26 16 30 c8 17 17 31 18 33 2
2 107 -24 234 -57 128 -34 235 -61 239 -60 8 0 -479 169 -489 169 -4 0 -9 -14
-13 -31z"/>
<path d="M8717 4972 c-120 -41 -216 -76 -214 -79 3 -2 100 22 217 52 116 31
213 55 215 53 1 -2 10 -18 19 -35 19 -38 28 -43 22 -10 -3 12 -8 39 -11 60 -3
20 -11 36 -18 36 -7 -1 -110 -35 -230 -77z"/>
<path d="M7162 4909 c3 -8 11 -40 19 -73 9 -44 15 -54 20 -40 4 11 8 32 8 47
l1 28 73 -6 c119 -9 549 -27 552 -23 2 2 -132 18 -298 36 -166 19 -320 36
-341 39 -31 5 -38 3 -34 -8z"/>
<path d="M8800 4880 c-179 -21 -311 -38 -295 -39 33 -1 398 15 532 24 l82 5 3
-47 3 -48 12 41 c26 84 27 104 7 103 -11 -1 -165 -18 -344 -39z"/>
<path d="M7500 4770 l-355 -27 360 -2 360 -1 16 -39 c29 -67 53 -74 279 -74
226 0 250 7 279 74 l16 39 360 1 360 2 -305 22 c-168 13 -339 26 -381 29 l-76
6 -7 -39 c-4 -27 -16 -47 -37 -65 -30 -26 -32 -26 -209 -26 -177 0 -179 0
-209 26 -21 18 -33 38 -37 65 -6 34 -10 39 -33 38 -14 -1 -186 -14 -381 -29z"/>
<path d="M7465 4417 c-21 -67 -40 -127 -42 -133 -3 -7 12 -13 38 -16 38 -3 42
-1 51 24 8 22 16 28 38 28 22 0 29 -5 33 -28 6 -28 7 -29 52 -22 25 4 47 9 49
11 2 3 -91 235 -98 245 -1 1 -19 4 -42 7 l-41 7 -38 -123z m95 -24 c0 -7 -7
-13 -16 -13 -11 0 -14 5 -10 16 3 9 6 21 6 27 0 16 20 -14 20 -30z"/>
<path d="M7760 4527 c-45 -16 -68 -55 -55 -94 8 -20 23 -32 60 -46 28 -11 61
-24 74 -29 13 -5 21 -11 18 -14 -10 -11 -77 -6 -92 6 -11 9 -21 7 -45 -10 -16
-12 -30 -23 -30 -26 0 -2 15 -13 33 -24 54 -33 173 -25 199 14 15 22 8 76 -11
95 -11 11 -39 25 -63 31 -65 17 -70 19 -63 30 9 15 61 12 75 -5 12 -14 20 -13
59 13 22 15 -4 50 -47 62 -46 12 -68 12 -112 -3z"/>
<path d="M8031 4518 c-5 -13 -25 -74 -44 -136 l-35 -112 28 0 c16 0 34 -2 42
-5 8 -3 18 6 25 25 8 22 18 30 36 30 20 0 27 -6 32 -31 5 -21 11 -29 22 -25 8
3 24 6 36 6 49 0 49 11 -5 138 -44 105 -54 122 -74 122 -12 0 -29 3 -38 6 -11
4 -19 -2 -25 -18z m62 -118 c4 -15 0 -20 -13 -20 -13 0 -17 5 -13 20 3 11 9
20 13 20 4 0 10 -9 13 -20z"/>
<path d="M8410 4527 c-45 -16 -68 -55 -55 -94 8 -20 23 -32 60 -46 28 -11 61
-24 74 -29 13 -5 21 -11 18 -14 -10 -11 -77 -6 -92 6 -11 9 -19 8 -39 -5 -34
-23 -33 -41 4 -60 34 -18 132 -20 163 -4 30 16 37 28 37 67 0 41 -27 68 -82
82 -65 17 -70 19 -63 30 9 15 61 12 75 -5 12 -14 20 -13 59 13 22 15 -4 50
-47 62 -46 12 -68 12 -112 -3z"/>
<path d="M9052 4490 c-20 -27 -40 -49 -44 -49 -5 -1 -8 19 -8 44 0 41 -2 45
-24 45 -50 0 -56 -8 -56 -74 0 -33 3 -91 7 -128 l6 -68 38 0 38 0 3 48 3 47
27 -41 c24 -37 32 -42 78 -48 29 -4 54 -5 56 -3 3 2 -20 35 -50 72 l-54 68 53
61 c30 33 53 61 52 62 -1 1 -21 4 -45 7 -42 5 -44 4 -80 -43z"/>
<path d="M7146 4513 l-29 -5 7 -75 c3 -42 6 -98 6 -125 l0 -48 35 0 35 0 1 58
1 57 16 -52 c22 -78 64 -71 94 14 l16 48 1 -62 1 -63 35 0 35 0 0 130 0 130
-37 0 c-50 0 -56 -6 -78 -67 -11 -29 -22 -53 -25 -53 -4 0 -15 27 -25 60 -19
64 -18 63 -89 53z"/>
<path d="M8633 4513 c-21 -4 -23 -10 -23 -67 0 -35 3 -91 6 -125 l7 -62 31 3
c29 3 31 6 36 53 l6 50 8 -42 c9 -49 18 -57 51 -49 18 5 28 20 43 63 l20 58 1
-67 1 -68 35 0 35 0 0 131 0 130 -47 -3 -47 -3 -25 -64 -25 -63 -21 63 c-23
67 -33 74 -92 62z"/>
<path d="M7515 4192 c-6 -4 -10 -19 -10 -34 -1 -22 4 -28 20 -27 11 0 14 3 8
6 -16 6 -17 40 -1 45 7 3 8 7 2 11 -5 3 -14 3 -19 -1z"/>
<path d="M7874 4193 c-17 -6 -4 -63 15 -62 10 0 11 2 4 6 -16 6 -17 40 -1 45
7 3 8 7 3 10 -6 3 -15 4 -21 1z"/>
<path d="M8790 4185 c7 -8 10 -25 7 -37 -5 -19 -4 -20 9 -6 17 16 10 44 -13
52 -13 5 -14 4 -3 -9z"/>
<path d="M7317 4183 c-10 -10 -8 -55 2 -49 5 3 7 15 4 26 -4 14 0 20 12 20 11
0 15 -5 11 -16 -3 -8 -2 -12 4 -9 17 10 11 35 -8 35 -10 0 -22 -3 -25 -7z"/>
<path d="M7387 4184 c-11 -12 -8 -26 4 -18 7 4 10 1 7 -7 -3 -8 -10 -14 -15
-14 -6 0 -15 -3 -19 -7 -4 -4 7 -6 25 -5 17 1 31 4 31 7 -1 15 -27 50 -33 44z"/>
<path d="M7433 4175 c2 -13 9 -19 20 -17 11 2 17 -4 18 -15 0 -16 1 -16 8 2 5
11 6 27 3 34 -4 10 -7 11 -10 3 -5 -16 -29 -15 -36 1 -3 6 -4 3 -3 -8z"/>
<path d="M7563 4183 c9 -2 23 -2 30 0 6 3 -1 5 -18 5 -16 0 -22 -2 -12 -5z"/>
<path d="M7682 4165 c-16 -35 -15 -44 3 -21 15 20 15 20 16 0 0 -10 3 -14 5
-8 3 6 1 21 -4 33 l-8 23 -12 -27z"/>
<path d="M7740 4180 c0 -5 5 -10 10 -10 6 0 10 5 10 10 0 6 -4 10 -10 10 -5 0
-10 -4 -10 -10z"/>
<path d="M7791 4159 c1 -19 3 -26 6 -16 5 18 6 18 24 1 29 -26 23 -1 -6 26
l-25 23 1 -34z"/>
<path d="M7920 4175 c-11 -13 -8 -15 14 -15 14 0 26 -5 26 -11 0 -7 -11 -9
-26 -6 -16 3 -22 1 -16 -5 15 -15 46 -5 50 15 2 12 -3 17 -20 18 -22 0 -22 1
-3 9 15 7 16 9 4 9 -9 1 -22 -6 -29 -14z"/>
<path d="M7991 4159 c1 -19 3 -26 6 -16 5 18 6 18 24 1 18 -16 19 -16 19 6 0
13 -3 20 -7 17 -3 -4 -15 0 -25 10 -17 15 -18 14 -17 -18z"/>
<path d="M8094 4175 c-5 -13 -9 -13 -23 -3 -14 12 -14 11 -3 -4 8 -9 11 -22 7
-28 -3 -5 -4 -10 -1 -10 3 0 12 14 21 30 9 17 13 30 10 30 -3 0 -8 -7 -11 -15z"/>
<path d="M8120 4165 c-13 -35 -14 -34 20 -33 16 1 27 5 24 10 -3 5 -14 6 -24
3 -15 -5 -17 -2 -13 15 4 17 8 18 14 8 6 -9 9 -9 9 -1 0 25 -20 23 -30 -2z"/>
<path d="M8252 4165 c-16 -35 -15 -44 3 -21 15 20 15 20 16 0 0 -10 3 -14 5
-8 3 6 1 21 -4 33 l-8 23 -12 -27z"/>
<path d="M8310 4180 c0 -5 5 -10 10 -10 6 0 10 5 10 10 0 6 -4 10 -10 10 -5 0
-10 -4 -10 -10z"/>
<path d="M8373 4183 c-22 -8 -14 -23 12 -23 34 0 32 -18 -2 -23 -27 -5 -27 -5
2 -3 37 1 50 36 13 37 -22 0 -22 1 -3 9 21 9 0 12 -22 3z"/>
<path d="M8443 4160 c-11 -28 -10 -29 18 -27 16 1 29 3 29 4 0 9 -25 53 -29
53 -4 0 -12 -13 -18 -30z m19 -12 c-7 -7 -12 -8 -12 -2 0 14 12 26 19 19 2 -3
-1 -11 -7 -17z"/>
<path d="M8547 4183 c-14 -13 -6 -23 18 -23 34 0 32 -18 -2 -23 -27 -5 -27 -5
2 -3 37 1 50 36 13 37 -22 0 -22 1 -3 9 20 8 20 9 -1 9 -11 1 -24 -2 -27 -6z"/>
<path d="M8613 4175 c-8 -22 -1 -26 33 -16 l29 9 -30 2 c-30 2 -30 2 -5 10 24
8 24 8 2 9 -12 1 -25 -6 -29 -14z"/>
<path d="M8680 4165 c0 -26 4 -31 28 -33 23 -1 25 0 9 9 -18 10 -18 12 0 32
17 21 17 21 0 7 -16 -12 -20 -12 -28 1 -6 10 -9 6 -9 -16z"/>
<path d="M8751 4176 c-14 -16 -5 -42 17 -51 15 -5 15 -4 0 12 -12 13 -14 23
-7 36 12 20 6 23 -10 3z"/>
<path d="M8831 4163 c-1 -28 2 -33 22 -32 15 1 17 3 5 6 -9 2 -19 16 -21 31
-4 24 -4 24 -6 -5z"/>
<path d="M8907 4184 c-11 -12 -8 -26 4 -18 7 4 10 1 7 -7 -3 -8 -10 -14 -15
-14 -6 0 -15 -3 -19 -7 -4 -4 7 -6 25 -5 17 1 31 4 31 7 -1 15 -27 50 -33 44z"/>
<path d="M8961 4160 c1 -19 3 -27 6 -17 2 10 10 16 17 15 12 -3 16 3 16 25 0
8 -4 7 -10 -3 -9 -13 -11 -13 -20 0 -7 11 -9 6 -9 -20z"/>
<path d="M7650 4171 c0 -5 -3 -18 -6 -28 -6 -16 -5 -16 9 2 19 23 21 35 7 35
-5 0 -10 -4 -10 -9z"/>
<path d="M8220 4171 c0 -5 -3 -18 -6 -28 -6 -16 -5 -16 9 2 19 23 21 35 7 35
-5 0 -10 -4 -10 -9z"/>
<path d="M7727 4147 c-5 -13 0 -16 22 -14 18 1 27 7 24 15 -4 9 -9 10 -18 2
-9 -8 -14 -7 -17 2 -3 8 -6 7 -11 -5z"/>
<path d="M8297 4147 c-5 -13 0 -16 22 -14 18 1 27 7 24 15 -4 9 -9 10 -18 2
-9 -8 -14 -7 -17 2 -3 8 -6 7 -11 -5z"/>
<path d="M8620 4131 c0 -5 9 -7 20 -4 11 3 20 7 20 9 0 2 -9 4 -20 4 -11 0
-20 -4 -20 -9z"/>
<path d="M5163 3020 c-1 -41 1 -66 4 -55 3 11 17 32 31 48 14 15 21 27 15 27
-6 0 -17 -7 -24 -17 -12 -14 -15 -11 -20 28 -5 35 -6 29 -6 -31z"/>
<path d="M11310 3061 c0 -25 -3 -28 -25 -24 -19 4 -27 0 -36 -20 -17 -37 3
-68 41 -65 l30 2 0 68 c0 37 -2 68 -5 68 -3 0 -5 -13 -5 -29z m-5 -66 c0 -23
-4 -30 -20 -30 -21 0 -31 25 -21 51 11 28 41 12 41 -21z"/>
<path d="M11612 3020 c0 -59 2 -67 8 -37 4 20 4 54 0 75 -6 29 -8 21 -8 -38z"/>
<path d="M1291 3013 c1 -37 4 -56 6 -41 3 18 11 28 25 30 52 8 47 70 -6 76
l-26 3 1 -68z m53 42 c8 -23 -4 -45 -25 -45 -14 0 -19 7 -19 30 0 23 5 30 19
30 10 0 21 -7 25 -15z"/>
<path d="M1380 3070 c0 -5 5 -10 10 -10 6 0 10 5 10 10 0 6 -4 10 -10 10 -5 0
-10 -4 -10 -10z"/>
<path d="M4701 3013 c1 -37 4 -56 6 -41 3 18 11 28 25 30 52 8 47 70 -6 76
l-26 3 1 -68z m53 42 c8 -23 -4 -45 -25 -45 -14 0 -19 7 -19 30 0 23 5 30 19
30 10 0 21 -7 25 -15z"/>
<path d="M7760 3015 c0 -37 4 -65 10 -65 6 0 10 21 11 48 l0 47 23 -50 23 -50
23 50 24 50 6 -50 7 -50 1 68 c1 37 -2 67 -7 67 -5 0 -19 -24 -31 -52 l-23
-53 -23 53 c-13 28 -28 52 -34 52 -6 0 -10 -28 -10 -65z"/>
<path d="M8243 3073 c-23 -9 -14 -41 17 -63 36 -26 34 -43 -6 -51 -29 -7 -29
-7 -3 -8 54 -2 63 48 14 71 -34 15 -29 43 8 43 15 -1 27 3 27 7 0 9 -37 10
-57 1z"/>
<path d="M8332 3013 c1 -67 1 -67 7 -18 l6 50 23 -50 23 -50 22 50 22 50 6
-50 c6 -49 6 -49 7 18 1 37 -1 67 -4 67 -3 0 -16 -24 -29 -52 l-24 -53 -22 53
c-13 28 -27 52 -31 52 -4 0 -7 -30 -6 -67z"/>
<path d="M8493 3015 c0 -38 2 -58 4 -42 5 34 16 34 41 2 11 -14 26 -25 33 -25
9 0 10 3 4 8 -5 4 -20 19 -33 33 l-23 26 26 32 c15 17 22 31 17 31 -5 0 -17
-11 -26 -25 -21 -32 -34 -32 -39 3 -2 15 -4 -4 -4 -43z"/>
<path d="M10960 3060 c-11 -20 -10 -21 39 -58 31 -24 19 -46 -20 -40 -16 3
-29 1 -29 -4 0 -14 57 -9 70 7 16 20 6 43 -25 57 -32 14 -29 40 5 49 l25 7
-27 1 c-18 1 -31 -6 -38 -19z"/>
<path d="M11480 3070 c0 -5 5 -10 10 -10 6 0 10 5 10 10 0 6 -4 10 -10 10 -5
0 -10 -4 -10 -10z"/>
<path d="M1380 2995 c0 -25 5 -45 10 -45 6 0 10 20 10 45 0 25 -4 45 -10 45
-5 0 -10 -20 -10 -45z"/>
<path d="M1431 3026 c-10 -12 -7 -18 13 -31 33 -22 33 -39 1 -33 -14 3 -25 1
-25 -4 0 -5 12 -8 27 -6 35 4 45 37 14 45 -12 3 -21 12 -21 20 0 10 7 14 20
10 11 -3 20 -1 20 4 0 14 -36 10 -49 -5z"/>
<path d="M1528 3033 c30 -6 28 -19 -4 -27 -19 -5 -25 -12 -22 -29 2 -17 10
-22 36 -24 29 -1 32 1 32 27 0 45 -10 60 -39 59 -23 -2 -24 -2 -3 -6z m22 -48
c0 -16 -27 -32 -37 -22 -3 4 -3 13 0 22 8 20 37 20 37 0z"/>
<path d="M1601 2990 l2 -45 6 40 c7 46 37 62 45 23 3 -13 7 -32 9 -43 3 -11 5
-4 6 15 1 46 -9 61 -42 58 -25 -2 -27 -5 -26 -48z"/>
<path d="M1699 3019 c-17 -34 4 -73 37 -66 19 3 24 1 22 -12 -2 -10 -13 -16
-31 -16 -15 1 -27 -3 -27 -7 0 -12 45 -9 58 4 7 7 12 35 12 63 0 49 -1 51 -30
53 -21 2 -32 -4 -41 -19z m56 -24 c0 -23 -4 -30 -20 -30 -21 0 -31 25 -21 51
11 28 41 12 41 -21z"/>
<path d="M1862 3028 c-26 -26 -7 -79 28 -77 9 0 6 4 -8 10 -32 12 -28 62 6 67
24 4 24 4 27 -50 2 -43 -14 -63 -45 -55 -11 3 -18 1 -14 -4 8 -13 48 -11 62 3
7 7 12 36 12 65 0 51 -1 53 -28 53 -15 0 -33 -5 -40 -12z"/>
<path d="M1966 3024 c-19 -18 -20 -28 -6 -55 20 -37 80 -18 80 26 0 42 -44 59
-74 29z m58 -16 c13 -22 -14 -54 -38 -45 -16 6 -22 48 -9 61 11 11 35 3 47
-16z"/>
<path d="M2060 2994 c0 -24 5 -44 10 -44 6 0 10 16 10 35 0 21 6 37 17 43 13
8 11 10 -10 10 -25 0 -27 -4 -27 -44z"/>
<path d="M2132 3028 c-27 -27 -7 -78 29 -78 10 0 20 4 23 9 3 4 -5 6 -18 4
-15 -3 -25 1 -29 11 -5 13 1 16 28 16 38 0 40 2 25 31 -12 21 -40 25 -58 7z
m46 -15 c2 -8 -6 -13 -22 -13 -19 0 -24 4 -19 15 6 18 34 16 41 -2z"/>
<path d="M2221 2995 l1 -50 8 40 c5 22 4 44 -1 50 -5 5 -9 -11 -8 -40z"/>
<path d="M2262 3028 c9 -7 19 -29 21 -48 3 -26 4 -24 3 10 -1 36 -5 45 -21 48
-18 4 -19 3 -3 -10z"/>
<path d="M2332 3028 c-26 -26 -7 -79 28 -77 9 0 6 4 -8 10 -32 12 -28 62 6 67
24 4 24 4 27 -50 2 -43 -14 -63 -45 -55 -11 3 -18 1 -14 -4 8 -13 48 -11 62 3
7 7 12 36 12 65 0 51 -1 53 -28 53 -15 0 -33 -5 -40 -12z"/>
<path d="M4795 3031 c-3 -7 0 -8 9 -5 32 12 38 -9 7 -22 -44 -18 -39 -49 7
-50 33 -1 33 0 30 40 -2 33 -7 42 -25 44 -11 2 -24 -2 -28 -7z m45 -46 c0 -16
-27 -32 -37 -22 -3 4 -3 13 0 22 8 20 37 20 37 0z"/>
<path d="M4881 2991 l2 -46 6 40 c5 31 10 40 26 40 16 0 21 -9 26 -40 l7 -40
-2 45 c-1 44 -2 45 -33 46 -33 1 -33 1 -32 -45z"/>
<path d="M4986 3019 c-23 -33 -2 -70 39 -68 16 1 15 2 -5 8 -19 5 -25 13 -25
36 0 23 6 31 25 36 23 6 23 7 3 8 -12 1 -29 -9 -37 -20z"/>
<path d="M5088 3033 c30 -6 28 -19 -4 -27 -19 -5 -25 -12 -22 -29 2 -17 10
-22 36 -24 29 -1 32 1 32 27 0 45 -10 60 -39 59 -23 -2 -24 -2 -3 -6z m22 -48
c0 -16 -27 -32 -37 -22 -3 4 -3 13 0 22 8 20 37 20 37 0z"/>
<path d="M5252 3028 c-27 -27 -7 -78 29 -78 10 0 20 4 23 9 3 4 -5 6 -18 4
-15 -3 -25 1 -29 11 -5 13 1 16 28 16 38 0 40 2 25 31 -12 21 -40 25 -58 7z
m46 -15 c2 -8 -6 -13 -22 -13 -19 0 -24 4 -19 15 6 18 34 16 41 -2z"/>
<path d="M7926 3032 c-3 -5 6 -7 19 -4 15 2 25 0 25 -7 0 -6 -6 -11 -13 -11
-24 0 -48 -25 -41 -43 4 -12 16 -16 36 -15 27 2 29 4 26 43 -2 32 -7 41 -25
43 -11 2 -24 -1 -27 -6z m44 -47 c0 -16 -27 -32 -37 -22 -3 4 -3 13 0 22 8 20
37 20 37 0z"/>
<path d="M8014 3025 c-7 -18 3 -35 22 -35 23 0 16 -28 -8 -33 -22 -4 -22 -4
-2 -6 12 0 27 5 33 13 10 12 7 18 -13 31 -32 21 -33 32 -3 38 l22 4 -23 2
c-12 0 -25 -6 -28 -14z"/>
<path d="M8095 3031 c-3 -7 0 -8 9 -5 32 12 38 -9 7 -22 -44 -18 -39 -49 7
-50 33 -1 33 0 30 40 -2 33 -7 42 -25 44 -11 2 -24 -2 -28 -7z m45 -46 c0 -16
-27 -32 -37 -22 -3 4 -3 13 0 22 8 20 37 20 37 0z"/>
<path d="M11075 3033 c30 -8 42 -23 18 -23 -25 0 -47 -25 -39 -45 3 -8 13 -15
23 -15 15 0 15 2 -3 15 -16 13 -17 16 -4 25 25 16 42 12 35 -9 -3 -11 -1 -22
5 -26 8 -5 10 7 8 37 -3 40 -5 43 -33 45 -18 1 -22 -1 -10 -4z"/>
<path d="M11151 2990 l2 -45 6 40 c7 46 37 62 45 23 3 -13 7 -32 9 -43 3 -11
5 -4 6 15 1 46 -9 61 -42 58 -25 -2 -27 -5 -26 -48z"/>
<path d="M11355 2998 c7 -24 16 -43 20 -43 4 0 13 14 20 30 l13 30 7 -32 c9
-41 20 -42 34 -2 16 45 12 71 -4 29 -8 -23 -15 -30 -18 -20 -20 58 -19 57 -34
21 -11 -27 -17 -31 -24 -20 -5 8 -9 22 -9 32 0 9 -4 17 -9 17 -5 0 -3 -19 4
-42z"/>
<path d="M11480 2995 c0 -25 5 -45 10 -45 6 0 10 20 10 45 0 25 -4 45 -10 45
-5 0 -10 -20 -10 -45z"/>
<path d="M11536 3024 c-19 -18 -20 -28 -6 -55 10 -19 60 -28 60 -11 0 5 -10 8
-22 8 -19 -1 -23 4 -23 29 0 25 4 30 23 29 12 0 22 3 22 8 0 14 -38 9 -54 -8z"/>
<path d="M11652 3028 c9 -7 19 -29 21 -48 3 -26 4 -24 3 10 -1 36 -5 45 -21
48 -18 4 -19 3 -3 -10z"/>
<path d="M5197 2969 c12 -12 24 -21 27 -18 2 2 -8 13 -22 23 l-27 19 22 -24z"/>
<path d="M1750 2760 c0 -33 4 -60 10 -60 6 0 10 27 10 60 0 33 -4 60 -10 60
-6 0 -10 -27 -10 -60z"/>
<path d="M1921 2765 c-1 -57 0 -61 23 -63 29 -2 49 19 44 50 -2 17 -10 23 -28
23 -18 0 -27 7 -31 25 -4 16 -7 3 -8 -35z m54 -25 c0 -16 -6 -26 -18 -28 -19
-4 -32 20 -23 44 9 25 41 13 41 -16z"/>
<path d="M2300 2797 c0 -18 -5 -23 -27 -22 -25 0 -28 -3 -28 -35 0 -33 2 -35
33 -36 l32 -1 0 59 c0 32 -2 58 -5 58 -3 0 -5 -10 -5 -23z m-5 -57 c0 -16 -6
-26 -18 -28 -19 -4 -32 20 -23 44 9 25 41 13 41 -16z"/>
<path d="M5300 2797 c0 -18 -5 -23 -27 -22 -25 0 -28 -3 -28 -35 0 -33 2 -35
33 -36 l32 -1 0 59 c0 32 -2 58 -5 58 -3 0 -5 -10 -5 -23z m-5 -57 c0 -29 -32
-41 -41 -16 -9 24 4 48 23 44 12 -2 18 -12 18 -28z"/>
<path d="M11040 2800 c0 -13 -7 -20 -20 -20 -28 0 -48 -44 -30 -65 7 -8 20
-14 29 -14 14 1 14 2 -1 6 -34 9 -32 63 3 63 15 0 19 -7 19 -35 0 -19 5 -35
10 -35 6 0 10 27 10 60 0 33 -4 60 -10 60 -5 0 -10 -9 -10 -20z"/>
<path d="M11313 2760 c-1 -52 1 -58 7 -32 9 40 15 46 35 39 9 -4 15 -20 16
-39 1 -19 3 -25 6 -15 3 10 2 30 -2 44 -5 20 -11 24 -30 21 -20 -4 -25 0 -28
21 -2 14 -4 -3 -4 -39z"/>
<path d="M11533 2760 c0 -36 1 -57 4 -47 6 21 17 22 33 2 7 -8 17 -15 22 -15
6 0 0 9 -13 19 -23 19 -24 19 -5 40 11 12 14 21 9 21 -6 0 -13 -7 -17 -15 -10
-27 -25 -16 -29 23 -2 20 -4 8 -4 -28z"/>
<path d="M4481 2753 c1 -32 4 -48 6 -36 2 12 14 24 29 27 20 5 25 12 22 34 -2
21 -9 28 -30 30 -28 3 -28 3 -27 -55z m44 22 c0 -11 -8 -21 -17 -23 -14 -3
-18 3 -18 23 0 20 4 26 18 23 9 -2 17 -12 17 -23z"/>
<path d="M4993 2803 c-21 -8 -15 -31 12 -49 14 -9 25 -23 25 -31 0 -11 -7 -14
-25 -11 -14 3 -25 1 -25 -3 0 -15 47 -10 59 5 10 12 8 19 -8 35 -12 12 -26 21
-32 21 -20 0 -3 24 22 31 19 6 20 7 4 7 -11 0 -26 -2 -32 -5z"/>
<path d="M7811 2753 c2 -53 2 -54 8 -19 l6 39 19 -39 19 -39 21 45 21 45 6
-45 6 -45 1 58 c1 31 -2 57 -7 57 -5 0 -18 -21 -29 -47 l-20 -48 -20 48 c-12
26 -24 47 -27 47 -3 0 -4 -26 -4 -57z"/>
<path d="M8223 2793 c-4 -11 3 -23 20 -37 34 -28 34 -43 0 -49 -27 -5 -27 -5
2 -3 41 2 47 37 10 54 -31 14 -28 37 4 36 11 0 21 3 21 8 0 15 -51 8 -57 -9z"/>
<path d="M8312 2753 c1 -55 2 -55 6 -13 l4 45 22 -44 c18 -34 24 -40 29 -27 4
9 3 15 -2 11 -5 -3 -17 15 -27 40 -9 25 -21 45 -25 45 -5 0 -8 -26 -7 -57z"/>
<path d="M8397 2793 c-2 -10 -8 -27 -12 -38 -4 -13 -1 -11 9 5 14 25 15 25 19
-20 3 -42 4 -42 5 13 2 54 -10 77 -21 40z"/>
<path d="M8450 2755 c0 -30 5 -55 10 -55 6 0 10 10 10 22 l0 21 23 -21 c34
-32 45 -27 14 6 l-27 29 24 26 c30 32 22 36 -11 5 l-23 -21 0 21 c0 12 -4 22
-10 22 -5 0 -10 -25 -10 -55z"/>
<path d="M10733 2793 c-4 -11 3 -23 20 -37 34 -28 34 -43 0 -49 -27 -5 -27 -5
2 -3 41 2 47 37 10 54 -31 14 -28 37 4 36 11 0 21 3 21 8 0 15 -51 8 -57 -9z"/>
<path d="M11449 2794 c-11 -14 -10 -19 9 -34 12 -10 28 -20 34 -22 21 -7 -4
-30 -28 -25 -13 2 -24 0 -24 -4 0 -10 31 -12 54 -3 25 9 19 31 -15 55 -31 22
-30 33 6 42 19 4 19 5 -1 6 -12 0 -28 -6 -35 -15z"/>
<path d="M1377 2773 c-13 -13 -7 -32 13 -38 27 -9 25 -25 -2 -26 -19 -1 -20
-2 -4 -6 10 -3 23 0 30 7 8 9 6 16 -11 27 -28 19 -30 37 -3 30 11 -3 20 -1 20
4 0 10 -33 12 -43 2z"/>
<path d="M1446 2771 c-3 -5 3 -7 14 -4 27 7 25 -10 -2 -22 -32 -14 -29 -39 5
-43 27 -3 28 -2 25 35 -3 37 -28 57 -42 34z m34 -46 c0 -8 -6 -15 -14 -15 -17
0 -28 14 -19 24 12 12 33 6 33 -9z"/>
<path d="M1521 2737 l2 -42 6 35 c4 22 12 36 24 38 14 3 17 -4 18 -35 l2 -38
6 35 c9 50 38 53 44 6 l4 -36 -1 37 -1 38 -52 2 -53 3 1 -43z"/>
<path d="M1661 2716 c1 -34 4 -49 6 -35 3 20 9 26 22 22 23 -6 43 20 39 49 -2
18 -10 23 -35 24 l-33 1 1 -61z m54 24 c0 -16 -6 -26 -18 -28 -19 -4 -32 20
-23 44 9 25 41 13 41 -16z"/>
<path d="M1794 2766 c-16 -41 20 -86 47 -59 6 6 1 9 -12 9 -12 -1 -24 5 -26
12 -3 7 5 12 22 12 20 0 26 4 23 18 -4 22 -46 29 -54 8z m46 -6 c0 -5 -9 -10
-21 -10 -11 0 -17 5 -14 10 3 6 13 10 21 10 8 0 14 -4 14 -10z"/>
<path d="M2010 2740 c0 -22 5 -40 10 -40 6 0 10 15 10 34 0 19 6 37 13 39 6 3
2 6 -10 6 -20 1 -23 -4 -23 -39z"/>
<path d="M2076 2771 c-3 -5 3 -7 14 -4 27 7 25 -10 -2 -22 -32 -14 -29 -39 5
-43 27 -3 28 -2 25 35 -3 37 -28 57 -42 34z m34 -46 c0 -8 -6 -15 -14 -15 -17
0 -28 14 -19 24 12 12 33 6 33 -9z"/>
<path d="M2151 2735 l1 -40 8 33 c9 40 15 46 35 39 9 -4 15 -20 16 -39 1 -19
3 -25 6 -15 3 10 2 30 -1 43 -5 20 -12 24 -36 22 -28 -2 -30 -5 -29 -43z"/>
<path d="M4566 2771 c-3 -5 3 -7 14 -4 27 7 25 -10 -2 -22 -32 -14 -29 -39 5
-43 27 -3 28 -2 25 35 -3 37 -28 57 -42 34z m34 -46 c0 -8 -6 -15 -14 -15 -17
0 -28 14 -19 24 12 12 33 6 33 -9z"/>
<path d="M4641 2736 l2 -41 6 35 c8 48 38 54 44 8 l4 -33 -1 35 c-1 31 -4 35
-28 36 -26 1 -28 -1 -27 -40z"/>
<path d="M4730 2760 c-14 -27 4 -60 33 -60 21 0 21 1 -3 13 -14 7 -25 19 -25
27 0 8 11 20 25 27 24 12 24 13 3 13 -12 0 -27 -9 -33 -20z"/>
<path d="M4830 2769 l25 -11 -28 -10 c-37 -13 -33 -43 6 -44 26 -1 28 1 25 35
-3 30 -7 36 -28 38 l-25 3 25 -11z m20 -39 c0 -12 -28 -25 -36 -17 -9 9 6 27
22 27 8 0 14 -5 14 -10z"/>
<path d="M4880 2740 c0 -22 5 -40 10 -40 6 0 10 15 10 34 0 19 6 37 13 39 6 3
2 6 -10 6 -20 1 -23 -4 -23 -39z"/>
<path d="M5076 2771 c-3 -5 3 -7 14 -4 27 7 25 -10 -2 -22 -32 -14 -29 -39 5
-43 27 -3 28 -2 25 35 -3 37 -28 57 -42 34z m34 -46 c0 -8 -6 -15 -14 -15 -17
0 -28 14 -19 24 12 12 33 6 33 -9z"/>
<path d="M5154 2745 c1 -31 5 -41 21 -43 18 -4 19 -3 3 10 -9 7 -19 27 -21 43
-3 21 -4 18 -3 -10z"/>
<path d="M5200 2740 c0 -22 5 -40 10 -40 6 0 10 18 10 40 0 22 -4 40 -10 40
-5 0 -10 -18 -10 -40z"/>
<path d="M5358 2773 c30 -6 28 -19 -4 -27 -35 -9 -29 -41 9 -42 26 -1 28 1 25
35 -3 30 -7 36 -28 38 -22 1 -22 1 -2 -4z m22 -43 c0 -12 -28 -25 -36 -17 -9
9 6 27 22 27 8 0 14 -5 14 -10z"/>
<path d="M5421 2735 c2 -33 3 -35 6 -10 2 17 11 35 20 42 13 10 13 12 -6 10
-18 -1 -21 -7 -20 -42z"/>
<path d="M5500 2769 l25 -11 -28 -10 c-37 -13 -33 -43 6 -44 26 -1 28 1 25 35
-3 30 -7 36 -28 38 l-25 3 25 -11z m20 -39 c0 -12 -28 -25 -36 -17 -9 9 6 27
22 27 8 0 14 -5 14 -10z"/>
<path d="M7956 2771 c-3 -5 3 -7 14 -4 27 7 25 -10 -2 -22 -32 -14 -29 -39 5
-43 27 -3 28 -2 25 35 -3 37 -28 57 -42 34z m34 -46 c0 -8 -6 -15 -14 -15 -17
0 -28 14 -19 24 12 12 33 6 33 -9z"/>
<path d="M8026 2765 c-3 -9 3 -19 14 -25 26 -14 26 -34 0 -27 -11 3 -20 1 -20
-4 0 -5 9 -9 20 -9 27 0 38 30 17 42 -22 12 -22 25 1 31 13 4 12 5 -4 6 -12 0
-24 -6 -28 -14z"/>
<path d="M8118 2773 c30 -6 28 -19 -4 -27 -35 -9 -29 -41 9 -42 26 -1 28 1 25
35 -3 30 -7 36 -28 38 -22 1 -22 1 -2 -4z m22 -43 c0 -12 -28 -25 -36 -17 -9
9 6 27 22 27 8 0 14 -5 14 -10z"/>
<path d="M10838 2773 c30 -6 28 -19 -4 -27 -35 -9 -29 -41 9 -42 26 -1 28 1
25 35 -3 30 -7 36 -28 38 -22 1 -22 1 -2 -4z m22 -43 c0 -12 -28 -25 -36 -17
-9 9 6 27 22 27 8 0 14 -5 14 -10z"/>
<path d="M10901 2736 l2 -41 6 35 c8 48 38 54 44 8 l4 -33 -1 35 c-1 31 -4 35
-28 36 -26 1 -28 -1 -27 -40z"/>
<path d="M11081 2753 c21 -60 21 -59 34 -28 l13 30 12 -30 12 -30 14 30 c7 17
13 37 13 45 0 8 -7 -1 -14 -20 l-13 -35 -7 33 c-4 17 -11 32 -15 32 -4 0 -12
-15 -17 -32 l-11 -33 -7 33 c-4 17 -11 32 -16 32 -5 0 -4 -12 2 -27z"/>
<path d="M11203 2740 c0 -25 2 -35 4 -22 2 12 2 32 0 45 -2 12 -4 2 -4 -23z"/>
<path d="M11240 2760 c-14 -27 4 -60 33 -60 21 0 21 1 -3 13 -14 7 -25 19 -25
27 0 8 11 20 25 27 24 12 24 13 3 13 -12 0 -27 -9 -33 -20z"/>
<path d="M11615 2771 c-3 -7 0 -8 9 -5 8 3 21 2 28 -2 9 -6 5 -10 -12 -14 -16
-4 -26 -14 -28 -28 -3 -19 1 -22 28 -22 30 0 31 1 28 38 -2 29 -8 38 -25 40
-11 2 -24 -2 -28 -7z m45 -41 c0 -12 -28 -25 -36 -17 -9 9 6 27 22 27 8 0 14
-5 14 -10z"/>
<path d="M11691 2738 l1 -43 8 34 c4 18 14 37 22 42 9 6 7 9 -9 9 -20 0 -23
-5 -22 -42z"/>
<path d="M11753 2740 c0 -25 2 -35 4 -22 2 12 2 32 0 45 -2 12 -4 2 -4 -23z"/>
<path d="M11784 2768 c-4 -7 2 -18 14 -26 28 -18 29 -36 2 -29 -11 3 -20 1
-20 -5 0 -16 45 -4 48 13 1 8 -7 20 -20 26 l-23 11 25 10 c24 10 24 11 3 11
-12 1 -25 -4 -29 -11z"/>
<path d="M11880 2769 l25 -11 -28 -10 c-37 -13 -33 -43 6 -44 26 -1 28 1 25
35 -3 30 -7 36 -28 38 l-25 3 25 -11z m20 -39 c0 -12 -28 -25 -36 -17 -9 9 6
27 22 27 8 0 14 -5 14 -10z"/>
<path d="M1571 2433 c1 -32 4 -46 6 -30 5 34 30 35 45 2 6 -14 15 -25 20 -25
5 0 1 11 -8 25 -13 20 -14 28 -4 40 17 20 -3 45 -36 45 -23 0 -24 -3 -23 -57z
m52 41 c11 -11 -5 -34 -24 -34 -12 0 -19 7 -19 20 0 19 28 28 43 14z"/>
<path d="M1805 2474 c-20 -21 -16 -73 7 -88 25 -15 53 13 43 44 -5 17 -13 21
-31 17 -31 -6 -27 13 7 30 17 9 19 13 7 13 -9 0 -24 -7 -33 -16z m43 -57 c4
-20 -25 -34 -40 -19 -15 15 -1 44 19 40 10 -2 19 -11 21 -21z"/>
<path d="M1879 2466 c-14 -29 -5 -75 16 -83 27 -10 46 17 43 61 -2 34 -7 42
-25 44 -16 2 -26 -4 -34 -22z m46 -32 c0 -28 -5 -40 -16 -42 -21 -4 -33 41
-19 69 17 31 35 17 35 -27z"/>
<path d="M1970 2471 c-25 -47 2 -107 38 -84 33 20 27 103 -8 103 -11 0 -24 -9
-30 -19z m45 -36 c0 -45 -28 -63 -40 -25 -10 33 3 72 23 68 13 -2 17 -13 17
-43z"/>
<path d="M2061 2476 c-7 -8 -11 -32 -9 -53 3 -33 6 -38 28 -38 32 0 49 42 32
80 -13 28 -33 32 -51 11z m43 -19 c8 -34 -4 -68 -23 -65 -16 3 -27 48 -17 74
8 22 33 16 40 -9z"/>
<path d="M4731 2433 c1 -32 4 -46 6 -30 5 34 30 35 45 2 6 -14 15 -25 20 -25
5 0 1 11 -8 25 -13 20 -14 28 -4 40 17 20 -3 45 -36 45 -23 0 -24 -3 -23 -57z
m52 41 c11 -11 -5 -34 -24 -34 -12 0 -19 7 -19 20 0 19 28 28 43 14z"/>
<path d="M4960 2475 c-10 -12 -10 -18 0 -30 9 -11 10 -15 1 -15 -22 0 -7 -45
15 -48 25 -4 49 22 38 40 -4 7 -8 24 -8 38 -1 29 -27 38 -46 15z m40 -15 c0
-11 -6 -20 -14 -20 -18 0 -29 16 -21 30 11 18 35 11 35 -10z m8 -47 c5 -17
-26 -29 -40 -15 -6 6 -7 15 -3 22 9 14 37 9 43 -7z"/>
<path d="M5039 2466 c-14 -29 -5 -75 16 -83 27 -10 46 17 43 61 -2 34 -7 42
-25 44 -16 2 -26 -4 -34 -22z m46 -32 c0 -28 -5 -40 -16 -42 -21 -4 -33 41
-19 69 17 31 35 17 35 -27z"/>
<path d="M5130 2471 c-25 -47 2 -107 38 -84 33 20 27 103 -8 103 -11 0 -24 -9
-30 -19z m45 -36 c0 -45 -28 -63 -40 -25 -10 33 3 72 23 68 13 -2 17 -13 17
-43z"/>
<path d="M5221 2476 c-7 -8 -11 -32 -9 -53 3 -33 6 -38 28 -38 32 0 49 42 32
80 -13 28 -33 32 -51 11z m43 -19 c8 -34 -4 -68 -23 -65 -16 3 -27 48 -17 74
8 22 33 16 40 -9z"/>
<path d="M7891 2433 c1 -32 4 -46 6 -30 5 34 30 35 45 2 6 -14 15 -25 20 -25
5 0 1 11 -8 25 -13 20 -14 28 -4 40 17 20 -3 45 -36 45 -23 0 -24 -3 -23 -57z
m52 41 c11 -11 -5 -34 -24 -34 -12 0 -19 7 -19 20 0 19 28 28 43 14z"/>
<path d="M8120 2466 c0 -16 7 -26 21 -29 28 -8 21 -42 -9 -41 -12 0 -22 -3
-22 -8 0 -5 12 -8 28 -6 21 2 28 9 30 31 3 22 -1 30 -17 34 -28 7 -27 31 2 36
19 4 18 4 -5 6 -23 1 -28 -3 -28 -23z"/>
<path d="M8199 2466 c-14 -29 -5 -75 16 -83 27 -10 46 17 43 61 -2 34 -7 42
-25 44 -16 2 -26 -4 -34 -22z m46 -32 c0 -28 -5 -40 -16 -42 -21 -4 -33 41
-19 69 17 31 35 17 35 -27z"/>
<path d="M8290 2471 c-25 -47 2 -107 38 -84 33 20 27 103 -8 103 -11 0 -24 -9
-30 -19z m45 -36 c0 -45 -28 -63 -40 -25 -10 33 3 72 23 68 13 -2 17 -13 17
-43z"/>
<path d="M8381 2476 c-7 -8 -11 -32 -9 -53 3 -33 6 -38 28 -38 32 0 49 42 32
80 -13 28 -33 32 -51 11z m43 -19 c8 -34 -4 -68 -23 -65 -16 3 -27 48 -17 74
8 22 33 16 40 -9z"/>
<path d="M11051 2433 c1 -32 4 -46 6 -30 5 34 30 35 45 2 6 -14 15 -25 20 -25
5 0 1 11 -8 25 -13 20 -14 28 -4 40 17 20 -3 45 -36 45 -23 0 -24 -3 -23 -57z
m52 41 c11 -11 -5 -34 -24 -34 -12 0 -19 7 -19 20 0 19 28 28 43 14z"/>
<path d="M11285 2474 c-20 -21 -16 -73 7 -88 25 -15 53 13 43 44 -5 17 -13 21
-31 17 -31 -6 -27 13 7 30 17 9 19 13 7 13 -9 0 -24 -7 -33 -16z m43 -57 c4
-20 -25 -34 -40 -19 -15 15 -1 44 19 40 10 -2 19 -11 21 -21z"/>
<path d="M11359 2466 c-14 -29 -5 -75 16 -83 27 -10 46 17 43 61 -2 34 -7 42
-25 44 -16 2 -26 -4 -34 -22z m46 -32 c0 -28 -5 -40 -16 -42 -21 -4 -33 41
-19 69 17 31 35 17 35 -27z"/>
<path d="M11450 2471 c-25 -47 2 -107 38 -84 33 20 27 103 -8 103 -11 0 -24
-9 -30 -19z m45 -36 c0 -45 -28 -63 -40 -25 -10 33 3 72 23 68 13 -2 17 -13
17 -43z"/>
<path d="M11541 2476 c-7 -8 -11 -32 -9 -53 3 -33 6 -38 28 -38 32 0 49 42 32
80 -13 28 -33 32 -51 11z m43 -19 c8 -34 -4 -68 -23 -65 -16 3 -27 48 -17 74
8 22 33 16 40 -9z"/>
<path d="M1660 2398 c0 -32 4 -58 10 -58 6 0 10 9 10 20 0 13 7 20 20 20 26 0
44 34 30 59 -7 13 -20 19 -40 19 -30 -1 -30 -1 -30 -60z m58 25 c-4 -36 -38
-45 -38 -10 0 27 7 37 27 37 10 0 13 -9 11 -27z"/>
<path d="M4820 2398 c0 -32 4 -58 10 -58 6 0 10 9 10 20 0 13 7 20 20 20 26 0
44 34 30 59 -7 13 -20 19 -40 19 -30 -1 -30 -1 -30 -60z m58 25 c-4 -36 -38
-45 -38 -10 0 27 7 37 27 37 10 0 13 -9 11 -27z"/>
<path d="M7980 2398 c0 -32 4 -58 10 -58 6 0 10 9 10 20 0 13 7 20 20 20 26 0
44 34 30 59 -7 13 -20 19 -40 19 -30 -1 -30 -1 -30 -60z m58 25 c-4 -36 -38
-45 -38 -10 0 27 7 37 27 37 10 0 13 -9 11 -27z"/>
<path d="M11140 2398 c0 -32 4 -58 10 -58 6 0 10 9 10 20 0 13 7 20 20 20 26
0 44 34 30 59 -7 13 -20 19 -40 19 -30 -1 -30 -1 -30 -60z m58 25 c-4 -36 -38
-45 -38 -10 0 27 7 37 27 37 10 0 13 -9 11 -27z"/>
<path d="M1260 2000 l0 -60 30 0 c23 0 33 6 42 25 13 30 -5 59 -34 52 -14 -4
-18 1 -18 19 0 13 -4 24 -10 24 -6 0 -10 -27 -10 -60z m55 -20 c0 -13 -6 -25
-12 -27 -16 -6 -27 21 -19 43 9 23 31 11 31 -16z"/>
<path d="M1443 2000 c0 -47 1 -55 6 -30 9 50 41 55 41 6 0 -20 5 -36 10 -36
12 0 13 50 1 69 -5 8 -18 12 -29 9 -17 -5 -22 0 -25 21 -2 14 -4 -3 -4 -39z"/>
<path d="M1530 2000 c0 -33 4 -60 10 -60 6 0 10 6 10 14 0 7 9 25 21 40 20 26
14 37 -9 14 -9 -9 -12 -5 -12 20 0 18 -4 32 -10 32 -6 0 -10 -27 -10 -60z"/>
<path d="M1832 2000 c0 -37 3 -57 7 -47 6 17 8 17 20 3 7 -9 18 -16 24 -16 5
0 2 9 -8 20 -17 19 -17 21 0 40 10 11 13 20 8 20 -6 0 -17 -7 -24 -17 -13 -15
-15 -12 -20 23 -5 32 -6 27 -7 -26z"/>
<path d="M2030 2000 c0 -33 4 -60 10 -60 6 0 10 7 10 17 0 14 2 14 20 -2 30
-27 34 -12 5 15 -17 16 -25 34 -25 57 0 18 -4 33 -10 33 -6 0 -10 -27 -10 -60z"/>
<path d="M2420 2050 c0 -5 5 -10 10 -10 6 0 10 5 10 10 0 6 -4 10 -10 10 -5 0
-10 -4 -10 -10z"/>
<path d="M4420 2000 l0 -60 30 0 c23 0 33 6 42 25 13 30 -5 59 -34 52 -14 -4
-18 1 -18 19 0 13 -4 24 -10 24 -6 0 -10 -27 -10 -60z m55 -20 c0 -27 -22 -39
-31 -16 -8 22 3 49 19 43 6 -2 12 -14 12 -27z"/>
<path d="M4603 2000 c0 -47 1 -55 6 -30 9 50 41 55 41 6 0 -20 5 -36 10 -36
12 0 13 50 1 69 -5 8 -18 12 -29 9 -17 -5 -22 0 -25 21 -2 14 -4 -3 -4 -39z"/>
<path d="M4690 2000 c0 -33 4 -60 10 -60 6 0 10 6 10 14 0 7 9 25 21 40 20 26
14 37 -9 14 -9 -9 -12 -5 -12 20 0 18 -4 32 -10 32 -6 0 -10 -27 -10 -60z"/>
<path d="M4992 2000 c0 -37 3 -57 7 -47 6 17 8 17 20 3 7 -9 18 -16 24 -16 5
0 2 9 -8 20 -17 19 -17 21 0 40 10 11 13 20 8 20 -6 0 -17 -7 -24 -17 -13 -15
-15 -12 -20 23 -5 32 -6 27 -7 -26z"/>
<path d="M5190 2000 c0 -33 4 -60 10 -60 6 0 10 7 10 17 0 14 2 14 20 -2 30
-27 34 -12 5 15 -17 16 -25 34 -25 57 0 18 -4 33 -10 33 -6 0 -10 -27 -10 -60z"/>
<path d="M5580 2050 c0 -5 5 -10 10 -10 6 0 10 5 10 10 0 6 -4 10 -10 10 -5 0
-10 -4 -10 -10z"/>
<path d="M7580 2000 l0 -60 30 0 c23 0 33 6 42 25 13 30 -5 59 -34 52 -14 -4
-18 1 -18 19 0 13 -4 24 -10 24 -6 0 -10 -27 -10 -60z m55 -20 c0 -27 -22 -39
-31 -16 -8 22 3 49 19 43 6 -2 12 -14 12 -27z"/>
<path d="M7763 2000 c0 -47 1 -55 6 -30 9 50 41 55 41 6 0 -20 5 -36 10 -36
12 0 13 50 1 69 -5 8 -18 12 -29 9 -17 -5 -22 0 -25 21 -2 14 -4 -3 -4 -39z"/>
<path d="M7850 2000 c0 -33 4 -60 10 -60 6 0 10 6 10 14 0 7 9 25 21 40 20 26
14 37 -9 14 -9 -9 -12 -5 -12 20 0 18 -4 32 -10 32 -6 0 -10 -27 -10 -60z"/>
<path d="M8152 2000 c0 -37 3 -57 7 -47 6 17 8 17 20 3 7 -9 18 -16 24 -16 5
0 2 9 -8 20 -17 19 -17 21 0 40 10 11 13 20 8 20 -6 0 -17 -7 -24 -17 -13 -15
-15 -12 -20 23 -5 32 -6 27 -7 -26z"/>
<path d="M8350 2000 c0 -33 4 -60 10 -60 6 0 10 7 10 17 0 14 2 14 20 -2 30
-27 34 -12 5 15 -17 16 -25 34 -25 57 0 18 -4 33 -10 33 -6 0 -10 -27 -10 -60z"/>
<path d="M8740 2050 c0 -5 5 -10 10 -10 6 0 10 5 10 10 0 6 -4 10 -10 10 -5 0
-10 -4 -10 -10z"/>
<path d="M10740 2000 l0 -60 30 0 c23 0 33 6 42 25 13 30 -5 59 -34 52 -14 -4
-18 1 -18 19 0 13 -4 24 -10 24 -6 0 -10 -27 -10 -60z m55 -20 c0 -27 -22 -39
-31 -16 -8 22 3 49 19 43 6 -2 12 -14 12 -27z"/>
<path d="M10923 2000 c0 -47 1 -55 6 -30 9 50 41 55 41 6 0 -20 5 -36 10 -36
12 0 13 50 1 69 -5 8 -18 12 -29 9 -17 -5 -22 0 -25 21 -2 14 -4 -3 -4 -39z"/>
<path d="M11010 2000 c0 -33 4 -60 10 -60 6 0 10 6 10 14 0 7 9 25 21 40 20
26 14 37 -9 14 -9 -9 -12 -5 -12 20 0 18 -4 32 -10 32 -6 0 -10 -27 -10 -60z"/>
<path d="M11312 2000 c0 -37 3 -57 7 -47 6 17 8 17 20 3 7 -9 18 -16 24 -16 5
0 2 9 -8 20 -17 19 -17 21 0 40 10 11 13 20 8 20 -6 0 -17 -7 -24 -17 -13 -15
-15 -12 -20 23 -5 32 -6 27 -7 -26z"/>
<path d="M11510 2000 c0 -33 4 -60 10 -60 6 0 10 7 10 17 0 14 2 14 20 -2 30
-27 34 -12 5 15 -17 16 -25 34 -25 57 0 18 -4 33 -10 33 -6 0 -10 -27 -10 -60z"/>
<path d="M11900 2050 c0 -5 5 -10 10 -10 6 0 10 5 10 10 0 6 -4 10 -10 10 -5
0 -10 -4 -10 -10z"/>
<path d="M982 2043 c13 -3 18 -18 21 -56 l3 -52 2 52 c2 45 5 52 25 56 12 2 2
4 -23 4 -25 1 -37 -1 -28 -4z"/>
<path d="M4142 2043 c13 -3 18 -18 21 -56 l3 -52 2 52 c2 45 5 52 25 56 12 2
2 4 -23 4 -25 1 -37 -1 -28 -4z"/>
<path d="M7302 2043 c13 -3 18 -18 21 -56 l3 -52 2 52 c2 45 5 52 25 56 12 2
2 4 -23 4 -25 1 -37 -1 -28 -4z"/>
<path d="M10462 2043 c13 -3 18 -18 21 -56 l3 -52 2 52 c2 45 5 52 25 56 12 2
2 4 -23 4 -25 1 -37 -1 -28 -4z"/>
<path d="M1045 2011 c-3 -7 0 -8 9 -5 8 3 21 2 28 -2 9 -6 5 -10 -12 -14 -16
-4 -26 -14 -28 -28 -3 -19 1 -22 28 -22 30 0 31 1 28 38 -2 29 -8 38 -25 40
-11 2 -24 -2 -28 -7z m45 -41 c0 -12 -28 -25 -36 -17 -9 9 6 27 22 27 8 0 14
-5 14 -10z"/>
<path d="M1131 1977 c2 -42 2 -42 8 -8 8 48 31 53 31 7 0 -44 18 -48 22 -4 4
46 28 49 28 4 0 -20 5 -36 11 -36 6 0 9 16 7 38 l-3 37 -52 2 -53 3 1 -43z"/>
<path d="M1360 2011 c0 -5 9 -7 20 -4 11 3 20 1 20 -5 0 -5 -12 -13 -26 -16
-37 -10 -28 -40 14 -44 28 -3 32 0 32 22 0 40 -11 56 -36 56 -13 0 -24 -4 -24
-9z m38 -43 c-6 -18 -28 -21 -28 -4 0 9 7 16 16 16 9 0 14 -5 12 -12z"/>
<path d="M1610 2011 c0 -5 9 -7 20 -4 11 3 20 1 20 -5 0 -5 -11 -13 -25 -16
-14 -4 -25 -13 -25 -21 0 -18 -12 -19 -29 -2 -10 10 -11 9 -6 -4 4 -12 20 -17
56 -18 45 -1 49 1 49 23 0 40 -11 56 -36 56 -13 0 -24 -4 -24 -9z m38 -43 c-6
-18 -28 -21 -28 -4 0 9 7 16 16 16 9 0 14 -5 12 -12z"/>
<path d="M1690 1981 c0 -23 5 -41 10 -41 6 0 10 16 10 35 0 24 5 35 15 35 10
0 15 -11 15 -35 0 -19 5 -35 11 -35 6 0 9 16 7 38 -3 34 -6 37 -35 40 -32 3
-33 2 -33 -37z"/>
<path d="M1912 2008 c-15 -15 -15 -41 0 -56 14 -14 44 -16 52 -3 3 4 -5 6 -18
4 -15 -3 -25 1 -29 11 -5 12 0 16 24 16 24 0 30 4 27 18 -4 21 -39 27 -56 10z
m43 -8 c3 -5 -3 -10 -14 -10 -12 0 -21 5 -21 10 0 6 6 10 14 10 8 0 18 -4 21
-10z"/>
<path d="M2066 2004 c-6 -15 -4 -15 11 -3 10 7 20 15 22 16 2 2 -3 3 -11 3 -9
0 -19 -7 -22 -16z"/>
<path d="M2114 2006 c-12 -32 0 -61 29 -64 15 -2 27 1 27 6 0 5 -10 8 -21 8
-12 -1 -24 5 -26 12 -3 8 6 12 26 12 33 0 39 8 19 28 -16 16 -47 15 -54 -2z
m46 -6 c0 -5 -9 -10 -21 -10 -11 0 -17 5 -14 10 3 6 13 10 21 10 8 0 14 -4 14
-10z"/>
<path d="M2201 1978 c2 -34 3 -37 6 -13 2 17 12 36 21 43 14 11 13 12 -6 12
-19 0 -22 -5 -21 -42z"/>
<path d="M2256 2012 c-3 -6 3 -8 14 -5 11 3 20 0 20 -6 0 -6 -6 -11 -13 -11
-19 0 -36 -20 -30 -36 3 -8 18 -14 35 -14 28 0 29 2 26 38 -2 29 -8 38 -25 40
-11 2 -24 -1 -27 -6z m34 -47 c0 -8 -7 -15 -15 -15 -16 0 -20 12 -8 23 11 12
23 8 23 -8z"/>
<path d="M2330 1981 c0 -49 17 -55 22 -8 4 44 31 43 40 -3 l6 -35 -1 40 c-2
37 -4 40 -34 43 -32 3 -33 2 -33 -37z"/>
<path d="M2420 1965 c0 -45 -3 -55 -17 -56 -12 0 -13 -2 -5 -6 25 -10 42 18
42 68 0 27 -4 49 -10 49 -5 0 -10 -25 -10 -55z"/>
<path d="M2466 2012 c-3 -6 3 -8 14 -5 11 3 20 0 20 -6 0 -6 -6 -11 -13 -11
-19 0 -36 -20 -30 -36 3 -8 18 -14 35 -14 28 0 29 2 26 38 -2 29 -8 38 -25 40
-11 2 -24 -1 -27 -6z m34 -47 c0 -8 -7 -15 -15 -15 -16 0 -20 12 -8 23 11 12
23 8 23 -8z"/>
<path d="M2540 1981 c0 -49 17 -55 22 -8 4 44 31 43 40 -3 l6 -35 -1 40 c-2
37 -4 40 -34 43 -32 3 -33 2 -33 -37z"/>
<path d="M2634 2006 c-3 -8 -4 -25 -2 -38 2 -18 9 -23 31 -23 29 1 32 -2 18
-24 -5 -8 -18 -12 -30 -8 -12 3 -21 1 -21 -4 0 -13 44 -11 58 3 7 7 12 34 12
60 0 47 -1 48 -30 48 -17 0 -33 -6 -36 -14z m51 -26 c0 -16 -6 -26 -18 -28
-19 -4 -32 20 -23 44 9 25 41 13 41 -16z"/>
<path d="M4205 2011 c-3 -7 0 -8 9 -5 8 3 21 2 28 -2 9 -6 5 -10 -12 -14 -16
-4 -26 -14 -28 -28 -3 -19 1 -22 28 -22 30 0 31 1 28 38 -2 29 -8 38 -25 40
-11 2 -24 -2 -28 -7z m45 -41 c0 -12 -28 -25 -36 -17 -9 9 6 27 22 27 8 0 14
-5 14 -10z"/>
<path d="M4291 1977 c2 -42 2 -42 8 -8 8 48 31 53 31 7 0 -44 18 -48 22 -4 4
46 28 49 28 4 0 -20 5 -36 11 -36 6 0 9 16 7 38 l-3 37 -52 2 -53 3 1 -43z"/>
<path d="M4520 2011 c0 -5 9 -7 20 -4 11 3 20 1 20 -5 0 -5 -12 -13 -26 -16
-37 -10 -28 -40 14 -44 28 -3 32 0 32 22 0 40 -11 56 -36 56 -13 0 -24 -4 -24
-9z m38 -43 c-6 -18 -28 -21 -28 -4 0 9 7 16 16 16 9 0 14 -5 12 -12z"/>
<path d="M4770 2011 c0 -5 9 -7 20 -4 11 3 20 1 20 -5 0 -5 -11 -13 -25 -16
-14 -4 -25 -13 -25 -21 0 -18 -12 -19 -29 -2 -10 10 -11 9 -6 -4 4 -12 20 -17
56 -18 45 -1 49 1 49 23 0 40 -11 56 -36 56 -13 0 -24 -4 -24 -9z m38 -43 c-6
-18 -28 -21 -28 -4 0 9 7 16 16 16 9 0 14 -5 12 -12z"/>
<path d="M4850 1981 c0 -23 5 -41 10 -41 6 0 10 16 10 35 0 24 5 35 15 35 10
0 15 -11 15 -35 0 -19 5 -35 11 -35 6 0 9 16 7 38 -3 34 -6 37 -35 40 -32 3
-33 2 -33 -37z"/>
<path d="M5072 2008 c-15 -15 -15 -41 0 -56 14 -14 44 -16 52 -3 3 4 -5 6 -18
4 -15 -3 -25 1 -29 11 -5 12 0 16 24 16 24 0 30 4 27 18 -4 21 -39 27 -56 10z
m43 -8 c3 -5 -3 -10 -14 -10 -12 0 -21 5 -21 10 0 6 6 10 14 10 8 0 18 -4 21
-10z"/>
<path d="M5226 2004 c-6 -15 -4 -15 11 -3 10 7 20 15 22 16 2 2 -3 3 -11 3 -9
0 -19 -7 -22 -16z"/>
<path d="M5274 2006 c-12 -32 0 -61 29 -64 15 -2 27 1 27 6 0 5 -10 8 -21 8
-12 -1 -24 5 -26 12 -3 8 6 12 26 12 33 0 39 8 19 28 -16 16 -47 15 -54 -2z
m46 -6 c0 -5 -9 -10 -21 -10 -11 0 -17 5 -14 10 3 6 13 10 21 10 8 0 14 -4 14
-10z"/>
<path d="M5361 1978 c2 -34 3 -37 6 -13 2 17 12 36 21 43 14 11 13 12 -6 12
-19 0 -22 -5 -21 -42z"/>
<path d="M5416 2012 c-3 -6 3 -8 14 -5 11 3 20 0 20 -6 0 -6 -6 -11 -13 -11
-19 0 -36 -20 -30 -36 3 -8 18 -14 35 -14 28 0 29 2 26 38 -2 29 -8 38 -25 40
-11 2 -24 -1 -27 -6z m34 -47 c0 -8 -7 -15 -15 -15 -16 0 -20 12 -8 23 11 12
23 8 23 -8z"/>
<path d="M5490 1981 c0 -49 17 -55 22 -8 4 44 31 43 40 -3 l6 -35 -1 40 c-2
37 -4 40 -34 43 -32 3 -33 2 -33 -37z"/>
<path d="M5580 1965 c0 -45 -3 -55 -17 -56 -12 0 -13 -2 -5 -6 25 -10 42 18
42 68 0 27 -4 49 -10 49 -5 0 -10 -25 -10 -55z"/>
<path d="M5626 2012 c-3 -6 3 -8 14 -5 11 3 20 0 20 -6 0 -6 -6 -11 -13 -11
-19 0 -36 -20 -30 -36 3 -8 18 -14 35 -14 28 0 29 2 26 38 -2 29 -8 38 -25 40
-11 2 -24 -1 -27 -6z m34 -47 c0 -8 -7 -15 -15 -15 -16 0 -20 12 -8 23 11 12
23 8 23 -8z"/>
<path d="M5700 1981 c0 -49 17 -55 22 -8 4 44 31 43 40 -3 l6 -35 -1 40 c-2
37 -4 40 -34 43 -32 3 -33 2 -33 -37z"/>
<path d="M5794 2006 c-3 -8 -4 -25 -2 -38 2 -18 9 -23 31 -23 29 1 32 -2 18
-24 -5 -8 -18 -12 -30 -8 -12 3 -21 1 -21 -4 0 -13 44 -11 58 3 7 7 12 34 12
60 0 47 -1 48 -30 48 -17 0 -33 -6 -36 -14z m51 -26 c0 -29 -32 -41 -41 -16
-9 24 4 48 23 44 12 -2 18 -12 18 -28z"/>
<path d="M7365 2011 c-3 -7 0 -8 9 -5 8 3 21 2 28 -2 9 -6 5 -10 -12 -14 -16
-4 -26 -14 -28 -28 -3 -19 1 -22 28 -22 30 0 31 1 28 38 -2 29 -8 38 -25 40
-11 2 -24 -2 -28 -7z m45 -41 c0 -12 -28 -25 -36 -17 -9 9 6 27 22 27 8 0 14
-5 14 -10z"/>
<path d="M7451 1977 c2 -42 2 -42 8 -8 8 48 31 53 31 7 0 -44 18 -48 22 -4 4
46 28 49 28 4 0 -20 5 -36 11 -36 6 0 9 16 7 38 l-3 37 -52 2 -53 3 1 -43z"/>
<path d="M7680 2011 c0 -5 9 -7 20 -4 11 3 20 1 20 -5 0 -5 -12 -13 -26 -16
-37 -10 -28 -40 14 -44 28 -3 32 0 32 22 0 40 -11 56 -36 56 -13 0 -24 -4 -24
-9z m38 -43 c-6 -18 -28 -21 -28 -4 0 9 7 16 16 16 9 0 14 -5 12 -12z"/>
<path d="M7930 2011 c0 -5 9 -7 20 -4 11 3 20 1 20 -5 0 -5 -11 -13 -25 -16
-14 -4 -25 -13 -25 -21 0 -18 -12 -19 -29 -2 -10 10 -11 9 -6 -4 4 -12 20 -17
56 -18 45 -1 49 1 49 23 0 40 -11 56 -36 56 -13 0 -24 -4 -24 -9z m38 -43 c-6
-18 -28 -21 -28 -4 0 9 7 16 16 16 9 0 14 -5 12 -12z"/>
<path d="M8010 1981 c0 -23 5 -41 10 -41 6 0 10 16 10 35 0 24 5 35 15 35 10
0 15 -11 15 -35 0 -19 5 -35 11 -35 6 0 9 16 7 38 -3 34 -6 37 -35 40 -32 3
-33 2 -33 -37z"/>
<path d="M8232 2008 c-15 -15 -15 -41 0 -56 14 -14 44 -16 52 -3 3 4 -5 6 -18
4 -15 -3 -25 1 -29 11 -5 12 0 16 24 16 24 0 30 4 27 18 -4 21 -39 27 -56 10z
m43 -8 c3 -5 -3 -10 -14 -10 -12 0 -21 5 -21 10 0 6 6 10 14 10 8 0 18 -4 21
-10z"/>
<path d="M8386 2004 c-6 -15 -4 -15 11 -3 10 7 20 15 22 16 2 2 -3 3 -11 3 -9
0 -19 -7 -22 -16z"/>
<path d="M8434 2006 c-12 -32 0 -61 29 -64 15 -2 27 1 27 6 0 5 -10 8 -21 8
-12 -1 -24 5 -26 12 -3 8 6 12 26 12 33 0 39 8 19 28 -16 16 -47 15 -54 -2z
m46 -6 c0 -5 -9 -10 -21 -10 -11 0 -17 5 -14 10 3 6 13 10 21 10 8 0 14 -4 14
-10z"/>
<path d="M8521 1978 c2 -34 3 -37 6 -13 2 17 12 36 21 43 14 11 13 12 -6 12
-19 0 -22 -5 -21 -42z"/>
<path d="M8576 2012 c-3 -6 3 -8 14 -5 11 3 20 0 20 -6 0 -6 -6 -11 -13 -11
-19 0 -36 -20 -30 -36 3 -8 18 -14 35 -14 28 0 29 2 26 38 -2 29 -8 38 -25 40
-11 2 -24 -1 -27 -6z m34 -47 c0 -8 -7 -15 -15 -15 -16 0 -20 12 -8 23 11 12
23 8 23 -8z"/>
<path d="M8650 1981 c0 -49 17 -55 22 -8 4 44 31 43 40 -3 l6 -35 -1 40 c-2
37 -4 40 -34 43 -32 3 -33 2 -33 -37z"/>
<path d="M8740 1965 c0 -45 -3 -55 -17 -56 -12 0 -13 -2 -5 -6 25 -10 42 18
42 68 0 27 -4 49 -10 49 -5 0 -10 -25 -10 -55z"/>
<path d="M8786 2012 c-3 -6 3 -8 14 -5 11 3 20 0 20 -6 0 -6 -6 -11 -13 -11
-19 0 -36 -20 -30 -36 3 -8 18 -14 35 -14 28 0 29 2 26 38 -2 29 -8 38 -25 40
-11 2 -24 -1 -27 -6z m34 -47 c0 -8 -7 -15 -15 -15 -16 0 -20 12 -8 23 11 12
23 8 23 -8z"/>
<path d="M8860 1981 c0 -49 17 -55 22 -8 4 44 31 43 40 -3 l6 -35 -1 40 c-2
37 -4 40 -34 43 -32 3 -33 2 -33 -37z"/>
<path d="M8954 2006 c-3 -8 -4 -25 -2 -38 2 -18 9 -23 31 -23 29 1 32 -2 18
-24 -5 -8 -18 -12 -30 -8 -12 3 -21 1 -21 -4 0 -13 44 -11 58 3 7 7 12 34 12
60 0 47 -1 48 -30 48 -17 0 -33 -6 -36 -14z m51 -26 c0 -29 -32 -41 -41 -16
-9 24 4 48 23 44 12 -2 18 -12 18 -28z"/>
<path d="M10525 2011 c-3 -7 0 -8 9 -5 8 3 21 2 28 -2 9 -6 5 -10 -12 -14 -16
-4 -26 -14 -28 -28 -3 -19 1 -22 28 -22 30 0 31 1 28 38 -2 29 -8 38 -25 40
-11 2 -24 -2 -28 -7z m45 -41 c0 -12 -28 -25 -36 -17 -9 9 6 27 22 27 8 0 14
-5 14 -10z"/>
<path d="M10611 1977 c2 -42 2 -42 8 -8 8 48 31 53 31 7 0 -44 18 -48 22 -4 4
46 28 49 28 4 0 -20 5 -36 11 -36 6 0 9 16 7 38 l-3 37 -52 2 -53 3 1 -43z"/>
<path d="M10840 2011 c0 -5 9 -7 20 -4 11 3 20 1 20 -5 0 -5 -12 -13 -26 -16
-37 -10 -28 -40 14 -44 28 -3 32 0 32 22 0 40 -11 56 -36 56 -13 0 -24 -4 -24
-9z m38 -43 c-6 -18 -28 -21 -28 -4 0 9 7 16 16 16 9 0 14 -5 12 -12z"/>
<path d="M11090 2011 c0 -5 9 -7 20 -4 11 3 20 1 20 -5 0 -5 -11 -13 -25 -16
-14 -4 -25 -13 -25 -21 0 -18 -12 -19 -29 -2 -10 10 -11 9 -6 -4 4 -12 20 -17
56 -18 45 -1 49 1 49 23 0 40 -11 56 -36 56 -13 0 -24 -4 -24 -9z m38 -43 c-6
-18 -28 -21 -28 -4 0 9 7 16 16 16 9 0 14 -5 12 -12z"/>
<path d="M11170 1981 c0 -23 5 -41 10 -41 6 0 10 16 10 35 0 24 5 35 15 35 10
0 15 -11 15 -35 0 -19 5 -35 11 -35 6 0 9 16 7 38 -3 34 -6 37 -35 40 -32 3
-33 2 -33 -37z"/>
<path d="M11392 2008 c-15 -15 -15 -41 0 -56 14 -14 44 -16 52 -3 3 4 -5 6
-18 4 -15 -3 -25 1 -29 11 -5 12 0 16 24 16 24 0 30 4 27 18 -4 21 -39 27 -56
10z m43 -8 c3 -5 -3 -10 -14 -10 -12 0 -21 5 -21 10 0 6 6 10 14 10 8 0 18 -4
21 -10z"/>
<path d="M11546 2004 c-6 -15 -4 -15 11 -3 10 7 20 15 22 16 2 2 -3 3 -11 3
-9 0 -19 -7 -22 -16z"/>
<path d="M11594 2006 c-12 -32 0 -61 29 -64 15 -2 27 1 27 6 0 5 -10 8 -21 8
-12 -1 -24 5 -26 12 -3 8 6 12 26 12 33 0 39 8 19 28 -16 16 -47 15 -54 -2z
m46 -6 c0 -5 -9 -10 -21 -10 -11 0 -17 5 -14 10 3 6 13 10 21 10 8 0 14 -4 14
-10z"/>
<path d="M11681 1978 c2 -34 3 -37 6 -13 2 17 12 36 21 43 14 11 13 12 -6 12
-19 0 -22 -5 -21 -42z"/>
<path d="M11736 2012 c-3 -6 3 -8 14 -5 11 3 20 0 20 -6 0 -6 -6 -11 -13 -11
-19 0 -36 -20 -30 -36 3 -8 18 -14 35 -14 28 0 29 2 26 38 -2 29 -8 38 -25 40
-11 2 -24 -1 -27 -6z m34 -47 c0 -8 -7 -15 -15 -15 -16 0 -20 12 -8 23 11 12
23 8 23 -8z"/>
<path d="M11810 1981 c0 -49 17 -55 22 -8 4 44 31 43 40 -3 l6 -35 -1 40 c-2
37 -4 40 -34 43 -32 3 -33 2 -33 -37z"/>
<path d="M11900 1965 c0 -45 -3 -55 -17 -56 -12 0 -13 -2 -5 -6 25 -10 42 18
42 68 0 27 -4 49 -10 49 -5 0 -10 -25 -10 -55z"/>
<path d="M11946 2012 c-3 -6 3 -8 14 -5 11 3 20 0 20 -6 0 -6 -6 -11 -13 -11
-19 0 -36 -20 -30 -36 3 -8 18 -14 35 -14 28 0 29 2 26 38 -2 29 -8 38 -25 40
-11 2 -24 -1 -27 -6z m34 -47 c0 -8 -7 -15 -15 -15 -16 0 -20 12 -8 23 11 12
23 8 23 -8z"/>
<path d="M12020 1981 c0 -49 17 -55 22 -8 4 44 31 43 40 -3 l6 -35 -1 40 c-2
37 -4 40 -34 43 -32 3 -33 2 -33 -37z"/>
<path d="M12114 2006 c-3 -8 -4 -25 -2 -38 2 -18 9 -23 31 -23 29 1 32 -2 18
-24 -5 -8 -18 -12 -30 -8 -12 3 -21 1 -21 -4 0 -13 44 -11 58 3 7 7 12 34 12
60 0 47 -1 48 -30 48 -17 0 -33 -6 -36 -14z m51 -26 c0 -29 -32 -41 -41 -16
-9 24 4 48 23 44 12 -2 18 -12 18 -28z"/>
<path d="M6083 190 c-1 -52 1 -58 7 -32 9 40 15 46 35 39 9 -4 15 -20 16 -39
1 -19 3 -25 6 -15 3 10 2 30 -2 44 -5 20 -11 24 -30 21 -20 -4 -25 0 -28 21
-2 14 -4 -3 -4 -39z"/>
<path d="M6840 240 c0 -5 5 -10 10 -10 6 0 10 5 10 10 0 6 -4 10 -10 10 -5 0
-10 -4 -10 -10z"/>
<path d="M7230 227 c0 -18 -5 -23 -27 -22 -25 0 -28 -3 -28 -35 0 -33 2 -35
33 -36 l32 -1 0 59 c0 32 -2 58 -5 58 -3 0 -5 -10 -5 -23z m-5 -57 c0 -16 -6
-26 -18 -28 -19 -4 -32 20 -23 44 9 25 41 13 41 -16z"/>
<path d="M7392 190 c1 -48 2 -56 7 -30 8 48 38 54 44 8 l4 -33 -1 35 c-1 28
-5 35 -21 35 -13 0 -22 9 -26 25 -4 14 -7 -2 -7 -40z"/>
<path d="M7571 194 c-1 -60 0 -61 25 -60 51 2 59 71 8 71 -12 0 -21 9 -25 25
-4 16 -7 3 -8 -36z m54 -4 c10 -16 -5 -50 -21 -50 -17 0 -28 24 -20 45 6 17
32 20 41 5z"/>
<path d="M5536 218 c-9 -12 -16 -30 -16 -39 0 -25 35 -51 62 -46 21 4 21 4 -4
6 -59 3 -59 85 -1 94 l28 4 -27 2 c-18 0 -32 -7 -42 -21z"/>
<path d="M6287 222 c-10 -10 -17 -23 -17 -28 0 -4 7 2 16 14 18 26 50 28 78 5
21 -18 21 -18 2 5 -23 27 -57 29 -79 4z"/>
<path d="M6478 233 c29 -6 28 -34 -3 -63 -34 -32 -31 -40 13 -39 l37 2 -35 6
-35 6 27 18 c14 10 29 25 32 34 8 21 -12 43 -38 42 -20 -2 -20 -2 2 -6z"/>
<path d="M6551 226 c-7 -8 -11 -32 -9 -53 3 -33 6 -38 28 -38 32 0 49 42 32
80 -13 28 -33 32 -51 11z m43 -19 c8 -34 -4 -68 -23 -65 -16 3 -27 48 -17 74
8 22 33 16 40 -9z"/>
<path d="M6645 233 c37 -9 39 -21 6 -58 -17 -20 -31 -38 -31 -40 0 -3 17 -4
38 -4 30 2 32 3 10 6 -32 5 -36 18 -9 32 41 22 35 72 -8 70 -20 -1 -22 -2 -6
-6z"/>
<path d="M6738 230 c28 -12 28 -28 0 -39 l-22 -8 23 -6 c29 -7 22 -32 -8 -31
-11 0 -21 -3 -21 -8 0 -5 12 -8 28 -6 19 2 28 9 30 26 2 12 -2 22 -9 22 -9 0
-8 4 1 15 17 21 5 45 -22 44 l-23 0 23 -9z"/>
<path d="M6172 213 c-8 -8 -9 -13 -2 -13 5 0 10 -16 10 -35 0 -27 4 -35 18
-34 10 0 12 3 5 6 -15 5 -18 60 -4 65 5 2 4 8 -3 14 -8 8 -15 7 -24 -3z"/>
<path d="M6952 213 c-8 -8 -9 -13 -2 -13 5 0 10 -16 10 -35 0 -27 4 -35 18
-34 10 0 12 3 5 6 -15 5 -18 60 -4 65 5 2 4 8 -3 14 -8 8 -15 7 -24 -3z"/>
<path d="M5630 195 c-26 -32 13 -81 48 -59 22 14 27 41 12 59 -16 19 -44 19
-60 0z m54 -10 c8 -22 -4 -45 -24 -45 -10 0 -20 7 -24 15 -8 22 4 45 24 45 10
0 20 -7 24 -15z"/>
<path d="M5721 149 c1 -35 4 -54 6 -42 3 15 13 23 31 25 24 3 27 7 27 38 0 27
-5 36 -20 38 -19 4 -19 3 -1 -10 23 -18 17 -53 -9 -53 -15 0 -20 7 -20 27 0
14 -3 30 -7 34 -5 4 -7 -22 -7 -57z"/>
<path d="M5818 169 c12 -32 13 -45 4 -60 -7 -10 -8 -19 -4 -19 14 0 34 52 23
59 -5 3 -13 19 -16 34 -4 15 -11 27 -15 27 -5 0 -1 -18 8 -41z"/>
<path d="M5861 203 c-1 -6 -4 -20 -7 -30 -5 -17 -5 -17 6 0 6 10 9 23 6 30 -3
9 -5 9 -5 0z"/>
<path d="M5891 168 l1 -43 8 34 c4 18 14 37 22 42 9 6 7 9 -9 9 -20 0 -23 -5
-22 -42z"/>
<path d="M5953 170 c0 -25 2 -35 4 -22 2 12 2 32 0 45 -2 12 -4 2 -4 -23z"/>
<path d="M5992 198 c-27 -27 0 -77 34 -64 11 4 14 1 12 -11 -2 -9 -14 -20 -28
-25 -23 -6 -23 -7 5 -5 29 2 30 3 33 60 3 54 2 57 -21 57 -12 0 -28 -5 -35
-12z m43 -28 c0 -15 -6 -26 -16 -28 -19 -3 -31 21 -22 43 9 25 38 13 38 -15z"/>
<path d="M6300 195 c-16 -20 3 -45 34 -44 19 1 18 2 -4 8 -14 4 -25 13 -25 21
0 8 11 17 25 21 22 6 23 7 4 8 -12 1 -27 -6 -34 -14z"/>
<path d="M6840 156 c0 -34 -5 -56 -12 -59 -10 -4 -10 -6 0 -6 7 -1 17 11 22
25 13 33 13 94 0 94 -5 0 -10 -24 -10 -54z"/>
<path d="M6887 203 c-13 -13 -7 -32 13 -38 26 -8 26 -22 0 -28 -17 -4 -17 -4
2 -3 30 1 36 32 9 41 -27 8 -27 29 -1 22 11 -3 20 -1 20 4 0 10 -33 12 -43 2z"/>
<path d="M7010 195 c-15 -18 -10 -45 12 -59 12 -7 21 -7 28 0 8 8 4 10 -12 10
-18 -1 -23 4 -23 24 0 19 5 25 23 24 12 0 22 3 22 8 0 14 -37 9 -50 -7z"/>
<path d="M7080 191 c-25 -47 36 -83 64 -38 8 12 8 22 0 35 -16 25 -51 27 -64
3z m58 -19 c4 -28 -24 -40 -45 -19 -14 13 -14 19 -3 32 18 22 44 15 48 -13z"/>
<path d="M7272 198 c-27 -27 -2 -75 35 -65 15 4 14 5 -3 6 -12 0 -24 8 -28 16
-4 11 2 15 25 15 24 0 30 4 27 18 -4 21 -39 27 -56 10z m43 -8 c4 -6 -5 -10
-20 -10 -15 0 -24 4 -20 10 3 6 12 10 20 10 8 0 17 -4 20 -10z"/>
<path d="M7484 170 c1 -31 4 -35 29 -36 25 -1 27 1 26 40 l-2 41 -6 -35 c-8
-48 -38 -54 -44 -8 l-4 33 1 -35z"/>
<path d="M6270 164 c0 -17 35 -44 57 -44 11 0 28 10 39 23 19 22 19 22 -2 5
-28 -24 -60 -22 -78 4 -9 12 -16 18 -16 12z"/>
<path d="M0 15 c0 -8 4 -15 10 -15 5 0 7 7 4 15 -8 19 -14 19 -14 0z"/>
</g>
</svg>
