<?xml version="1.0" standalone="no"?>
<!DOCTYPE svg PUBLIC "-//W3C//DTD SVG 20010904//EN"
 "http://www.w3.org/TR/2001/REC-SVG-20010904/DTD/svg10.dtd">
<svg version="1.0" xmlns="http://www.w3.org/2000/svg"
 width="797.000000pt" height="438.000000pt" viewBox="0 0 797.000000 438.000000"
 preserveAspectRatio="xMidYMid meet">

<g transform="translate(0.000000,438.000000) scale(0.100000,-0.100000)"
fill="#000000" stroke="none">
<path d="M5405 4373 l-300 -3 -183 -683 c-101 -375 -183 -688 -182 -695 0 -22
-461 -1737 -469 -1742 -6 -4 -341 -1226 -341 -1245 0 -3 251 -5 558 -5 l557 0
444 1668 c245 917 450 1682 455 1699 10 30 42 -82 335 -1180 178 -666 326
-1220 329 -1229 4 -17 -26 -18 -530 -18 -294 0 -537 -2 -540 -5 -3 -3 63 -215
145 -470 l151 -465 1068 0 c1010 0 1068 1 1068 18 0 21 -1161 4334 -1169 4343
-7 8 -991 16 -1396 12z"/>
<path d="M1185 4358 c-3 -7 -266 -983 -585 -2168 -319 -1185 -583 -2163 -586
-2172 -5 -17 26 -18 554 -18 l558 0 347 1294 c191 712 347 1304 347 1315 0 28
456 1720 470 1744 10 16 -19 17 -545 17 -435 0 -557 -3 -560 -12z"/>
<path d="M2965 3697 c-99 -369 -179 -679 -178 -687 2 -21 -443 -1684 -472
-1760 -22 -59 -335 -1217 -335 -1240 0 -7 194 -10 553 -10 l552 0 344 1287
c189 708 345 1303 347 1323 2 32 452 1701 469 1743 7 16 -23 17 -546 17 l-554
0 -180 -673z"/>
</g>
</svg>
